<?xml version="1.0" encoding="utf-8" standalone="no"?>
<!DOCTYPE svg PUBLIC "-//W3C//DTD SVG 1.1//EN"
  "http://www.w3.org/Graphics/SVG/1.1/DTD/svg11.dtd">
<svg xmlns:xlink="http://www.w3.org/1999/xlink" width="222.622469pt" height="151.923594pt" viewBox="0 0 222.622469 151.923594" xmlns="http://www.w3.org/2000/svg" version="1.1">
 <metadata>
  <rdf:RDF xmlns:dc="http://purl.org/dc/elements/1.1/" xmlns:cc="http://creativecommons.org/ns#" xmlns:rdf="http://www.w3.org/1999/02/22-rdf-syntax-ns#">
   <cc:Work>
    <dc:type rdf:resource="http://purl.org/dc/dcmitype/StillImage"/>
    <dc:date>2026-07-11T15:17:15.063996</dc:date>
    <dc:format>image/svg+xml</dc:format>
    <dc:creator>
     <cc:Agent>
      <dc:title>Matplotlib v3.10.3, https://matplotlib.org/</dc:title>
     </cc:Agent>
    </dc:creator>
   </cc:Work>
  </rdf:RDF>
 </metadata>
 <defs>
  <style type="text/css">*{stroke-linejoin: round; stroke-linecap: butt}</style>
 </defs>
 <g id="figure_1">
  <g id="patch_1">
   <path d="M 0 151.923594 
L 222.622469 151.923594 
L 222.622469 0 
L 0 0 
z
" style="fill: #ffffff"/>
  </g>
  <g id="axes_1">
   <g id="patch_2">
    <path d="M 40.333594 119.065 
L 215.422469 119.065 
L 215.422469 7.2 
L 40.333594 7.2 
z
" style="fill: #ffffff"/>
   </g>
   <g id="matplotlib.axis_1">
    <g id="xtick_1">
     <g id="line2d_1">
      <path d="M 52.705672 119.065 
L 52.705672 7.2 
" clip-path="url(#p1a5672478e)" style="fill: none; stroke-dasharray: 0.8,1.32; stroke-dashoffset: 0; stroke: #b0b0b0; stroke-opacity: 0.55; stroke-width: 0.8"/>
     </g>
     <g id="line2d_2">
      <defs>
       <path id="m661d109d09" d="M 0 0 
L 0 3.5 
" style="stroke: #000000; stroke-width: 0.8"/>
      </defs>
      <g>
       <use xlink:href="#m661d109d09" x="52.705672" y="119.065" style="stroke: #000000; stroke-width: 0.8"/>
      </g>
     </g>
     <g id="text_1">
      <!-- 220 -->
      <g transform="translate(47.080672 131.269297) scale(0.075 -0.075)">
       <defs>
        <path id="CMUSerif-Roman-32" d="M 319 0 
Q 319 116 330 150 
Q 341 184 391 238 
L 1619 1606 
Q 2291 2363 2291 3022 
Q 2291 3450 2067 3756 
Q 1844 4063 1434 4063 
Q 1153 4063 915 3891 
Q 678 3719 569 3413 
Q 588 3419 653 3419 
Q 813 3419 902 3319 
Q 991 3219 991 3084 
Q 991 2913 880 2830 
Q 769 2747 659 2747 
Q 616 2747 558 2756 
Q 500 2766 409 2855 
Q 319 2944 319 3103 
Q 319 3550 658 3906 
Q 997 4263 1516 4263 
Q 2103 4263 2489 3914 
Q 2875 3566 2875 3022 
Q 2875 2831 2817 2657 
Q 2759 2484 2682 2350 
Q 2606 2216 2400 2000 
Q 2194 1784 2028 1631 
Q 1863 1478 1491 1153 
L 813 494 
L 1966 494 
Q 2528 494 2572 544 
Q 2634 634 2713 1113 
L 2875 1113 
L 2694 0 
L 319 0 
z
" transform="scale(0.015625)"/>
        <path id="CMUSerif-Roman-30" d="M 250 2047 
Q 250 2988 488 3500 
Q 819 4263 1600 4263 
Q 1766 4263 1939 4217 
Q 2113 4172 2333 4000 
Q 2553 3828 2688 3547 
Q 2944 3003 2944 2047 
Q 2944 1113 2706 603 
Q 2359 -141 1594 -141 
Q 1306 -141 1014 6 
Q 722 153 538 506 
Q 250 1034 250 2047 
z
M 781 2125 
Q 781 1159 850 775 
Q 928 359 1142 179 
Q 1356 0 1594 0 
Q 1850 0 2064 192 
Q 2278 384 2344 800 
Q 2416 1209 2413 2125 
Q 2413 3016 2350 3372 
Q 2266 3788 2042 3955 
Q 1819 4122 1594 4122 
Q 1509 4122 1420 4097 
Q 1331 4072 1203 4000 
Q 1075 3928 976 3750 
Q 878 3572 831 3303 
Q 781 2956 781 2125 
z
" transform="scale(0.015625)"/>
       </defs>
       <use xlink:href="#CMUSerif-Roman-32"/>
       <use xlink:href="#CMUSerif-Roman-32" transform="translate(50 0)"/>
       <use xlink:href="#CMUSerif-Roman-30" transform="translate(100 0)"/>
      </g>
     </g>
    </g>
    <g id="xtick_2">
     <g id="line2d_3">
      <path d="M 85.762947 119.065 
L 85.762947 7.2 
" clip-path="url(#p1a5672478e)" style="fill: none; stroke-dasharray: 0.8,1.32; stroke-dashoffset: 0; stroke: #b0b0b0; stroke-opacity: 0.55; stroke-width: 0.8"/>
     </g>
     <g id="line2d_4">
      <g>
       <use xlink:href="#m661d109d09" x="85.762947" y="119.065" style="stroke: #000000; stroke-width: 0.8"/>
      </g>
     </g>
     <g id="text_2">
      <!-- 240 -->
      <g transform="translate(80.137947 131.269297) scale(0.075 -0.075)">
       <defs>
        <path id="CMUSerif-Roman-34" d="M 178 1056 
L 178 1253 
L 2144 4256 
Q 2194 4334 2272 4331 
Q 2344 4331 2359 4303 
Q 2375 4275 2375 4166 
L 2375 1253 
L 3016 1253 
L 3016 1056 
L 2375 1056 
L 2375 500 
Q 2375 316 2451 256 
Q 2528 197 2859 197 
L 2994 197 
L 2994 0 
Q 2731 19 2125 19 
Q 1522 19 1259 0 
L 1259 197 
L 1394 197 
Q 1725 197 1803 255 
Q 1881 313 1881 500 
L 1881 1056 
L 178 1056 
z
M 359 1253 
L 1919 1253 
L 1919 3641 
L 359 1253 
z
" transform="scale(0.015625)"/>
       </defs>
       <use xlink:href="#CMUSerif-Roman-32"/>
       <use xlink:href="#CMUSerif-Roman-34" transform="translate(50 0)"/>
       <use xlink:href="#CMUSerif-Roman-30" transform="translate(100 0)"/>
      </g>
     </g>
    </g>
    <g id="xtick_3">
     <g id="line2d_5">
      <path d="M 118.820222 119.065 
L 118.820222 7.2 
" clip-path="url(#p1a5672478e)" style="fill: none; stroke-dasharray: 0.8,1.32; stroke-dashoffset: 0; stroke: #b0b0b0; stroke-opacity: 0.55; stroke-width: 0.8"/>
     </g>
     <g id="line2d_6">
      <g>
       <use xlink:href="#m661d109d09" x="118.820222" y="119.065" style="stroke: #000000; stroke-width: 0.8"/>
      </g>
     </g>
     <g id="text_3">
      <!-- 260 -->
      <g transform="translate(113.195222 131.269297) scale(0.075 -0.075)">
       <defs>
        <path id="CMUSerif-Roman-36" d="M 269 2022 
Q 269 3028 781 3645 
Q 1294 4263 1953 4263 
Q 2338 4263 2552 4067 
Q 2766 3872 2766 3572 
Q 2766 3406 2669 3334 
Q 2572 3263 2472 3263 
Q 2356 3263 2265 3341 
Q 2175 3419 2175 3559 
Q 2175 3847 2528 3847 
Q 2363 4103 1966 4103 
Q 1844 4103 1719 4067 
Q 1594 4031 1431 3912 
Q 1269 3794 1144 3606 
Q 1019 3419 931 3066 
Q 844 2713 844 2253 
L 844 2100 
Q 1106 2734 1643 2732 
Q 2181 2731 2553 2322 
Q 2925 1913 2925 1306 
Q 2925 684 2537 271 
Q 2150 -141 1606 -141 
Q 1363 -141 1142 -39 
Q 922 63 717 294 
Q 513 525 391 969 
Q 269 1413 269 2022 
z
M 856 1447 
Q 856 819 972 519 
Q 991 469 1033 400 
Q 1075 331 1148 242 
Q 1222 153 1344 95 
Q 1466 38 1606 38 
Q 2034 38 2241 453 
Q 2350 684 2350 1313 
Q 2350 1953 2234 2188 
Q 2038 2584 1638 2584 
Q 1369 2584 1183 2400 
Q 997 2216 926 1969 
Q 856 1722 856 1447 
z
" transform="scale(0.015625)"/>
       </defs>
       <use xlink:href="#CMUSerif-Roman-32"/>
       <use xlink:href="#CMUSerif-Roman-36" transform="translate(50 0)"/>
       <use xlink:href="#CMUSerif-Roman-30" transform="translate(100 0)"/>
      </g>
     </g>
    </g>
    <g id="xtick_4">
     <g id="line2d_7">
      <path d="M 151.877497 119.065 
L 151.877497 7.2 
" clip-path="url(#p1a5672478e)" style="fill: none; stroke-dasharray: 0.8,1.32; stroke-dashoffset: 0; stroke: #b0b0b0; stroke-opacity: 0.55; stroke-width: 0.8"/>
     </g>
     <g id="line2d_8">
      <g>
       <use xlink:href="#m661d109d09" x="151.877497" y="119.065" style="stroke: #000000; stroke-width: 0.8"/>
      </g>
     </g>
     <g id="text_4">
      <!-- 280 -->
      <g transform="translate(146.252497 131.269297) scale(0.075 -0.075)">
       <defs>
        <path id="CMUSerif-Roman-38" d="M 269 966 
Q 269 1681 1191 2144 
Q 794 2413 722 2491 
Q 441 2803 441 3194 
Q 441 3641 780 3952 
Q 1119 4263 1600 4263 
Q 2059 4263 2406 3997 
Q 2753 3731 2753 3309 
Q 2753 2716 1978 2316 
Q 2491 1997 2613 1863 
Q 2925 1516 2925 1075 
Q 2925 563 2531 211 
Q 2138 -141 1594 -141 
Q 1063 -141 666 168 
Q 269 478 269 966 
z
M 588 966 
Q 588 569 886 303 
Q 1184 38 1600 38 
Q 2003 38 2304 269 
Q 2606 500 2606 844 
Q 2606 978 2561 1093 
Q 2516 1209 2427 1301 
Q 2338 1394 2283 1436 
Q 2228 1478 2125 1550 
L 1338 2047 
Q 588 1631 588 966 
z
M 722 3444 
Q 722 3138 1044 2925 
L 1838 2413 
Q 2472 2784 2472 3309 
Q 2472 3650 2212 3876 
Q 1953 4103 1594 4103 
Q 1241 4103 981 3917 
Q 722 3731 722 3444 
z
" transform="scale(0.015625)"/>
       </defs>
       <use xlink:href="#CMUSerif-Roman-32"/>
       <use xlink:href="#CMUSerif-Roman-38" transform="translate(50 0)"/>
       <use xlink:href="#CMUSerif-Roman-30" transform="translate(100 0)"/>
      </g>
     </g>
    </g>
    <g id="xtick_5">
     <g id="line2d_9">
      <path d="M 184.934772 119.065 
L 184.934772 7.2 
" clip-path="url(#p1a5672478e)" style="fill: none; stroke-dasharray: 0.8,1.32; stroke-dashoffset: 0; stroke: #b0b0b0; stroke-opacity: 0.55; stroke-width: 0.8"/>
     </g>
     <g id="line2d_10">
      <g>
       <use xlink:href="#m661d109d09" x="184.934772" y="119.065" style="stroke: #000000; stroke-width: 0.8"/>
      </g>
     </g>
     <g id="text_5">
      <!-- 300 -->
      <g transform="translate(179.309772 131.269297) scale(0.075 -0.075)">
       <defs>
        <path id="CMUSerif-Roman-33" d="M 269 863 
Q 269 1053 378 1143 
Q 488 1234 628 1234 
Q 775 1234 879 1139 
Q 984 1044 984 878 
Q 984 700 861 600 
Q 738 500 563 525 
Q 716 269 998 153 
Q 1281 38 1544 38 
Q 1819 38 2042 275 
Q 2266 513 2266 1094 
Q 2266 1588 2073 1872 
Q 1881 2156 1503 2156 
L 1222 2156 
Q 1125 2156 1097 2165 
Q 1069 2175 1069 2228 
Q 1069 2291 1166 2303 
Q 1263 2303 1416 2322 
Q 1788 2334 1984 2656 
Q 2163 2956 2163 3384 
Q 2163 3775 1977 3939 
Q 1791 4103 1550 4103 
Q 1325 4103 1078 4009 
Q 831 3916 697 3706 
Q 1094 3706 1094 3384 
Q 1094 3244 1005 3151 
Q 916 3059 769 3059 
Q 628 3059 534 3148 
Q 441 3238 441 3391 
Q 441 3756 767 4009 
Q 1094 4263 1575 4263 
Q 2050 4263 2401 4013 
Q 2753 3763 2753 3378 
Q 2753 3000 2503 2690 
Q 2253 2381 1856 2253 
Q 2344 2156 2634 1826 
Q 2925 1497 2925 1094 
Q 2925 594 2531 226 
Q 2138 -141 1563 -141 
Q 1031 -141 650 146 
Q 269 434 269 863 
z
" transform="scale(0.015625)"/>
       </defs>
       <use xlink:href="#CMUSerif-Roman-33"/>
       <use xlink:href="#CMUSerif-Roman-30" transform="translate(50 0)"/>
       <use xlink:href="#CMUSerif-Roman-30" transform="translate(100 0)"/>
      </g>
     </g>
    </g>
    <g id="text_6">
     <!-- Optimal Makespan (days) -->
     <g transform="translate(82.237406 142.723594) scale(0.08 -0.08)">
      <defs>
       <path id="CMUSerif-Roman-4f" d="M 359 2169 
Q 359 3147 986 3830 
Q 1613 4513 2484 4513 
Q 3363 4513 3989 3828 
Q 4616 3144 4616 2169 
Q 4616 1203 3987 531 
Q 3359 -141 2484 -141 
Q 1622 -141 990 528 
Q 359 1197 359 2169 
z
M 1019 2259 
Q 1019 1666 1159 1211 
Q 1300 756 1526 509 
Q 1753 263 1997 144 
Q 2241 25 2491 25 
Q 2734 25 2973 140 
Q 3213 256 3441 500 
Q 3669 744 3812 1200 
Q 3956 1656 3956 2259 
Q 3956 2728 3856 3104 
Q 3756 3481 3600 3709 
Q 3444 3938 3242 4088 
Q 3041 4238 2852 4295 
Q 2663 4353 2484 4353 
Q 2259 4353 2025 4253 
Q 1791 4153 1555 3933 
Q 1319 3713 1169 3280 
Q 1019 2847 1019 2259 
z
" transform="scale(0.015625)"/>
       <path id="CMUSerif-Roman-70" d="M 178 -1044 
Q 519 -1044 598 -1001 
Q 678 -959 678 -756 
L 678 2241 
Q 678 2453 598 2506 
Q 519 2559 178 2559 
L 178 2759 
L 1100 2828 
L 1100 2406 
Q 1484 2828 1997 2828 
Q 2541 2828 2937 2406 
Q 3334 1984 3334 1381 
Q 3334 772 2912 350 
Q 2491 -72 1906 -72 
Q 1588 -72 1373 92 
Q 1159 256 1119 378 
L 1119 319 
L 1119 -756 
Q 1119 -963 1200 -1003 
Q 1281 -1044 1619 -1044 
L 1619 -1241 
Q 947 -1222 897 -1222 
Q 834 -1222 178 -1241 
L 178 -1044 
z
M 1119 728 
Q 1119 631 1133 597 
Q 1147 563 1209 459 
Q 1463 72 1875 72 
Q 1878 72 1881 72 
Q 2247 72 2525 445 
Q 2803 819 2803 1381 
Q 2803 1919 2550 2294 
Q 2297 2669 1947 2669 
Q 1697 2669 1478 2534 
Q 1259 2400 1119 2156 
L 1119 728 
z
" transform="scale(0.015625)"/>
       <path id="CMUSerif-Roman-74" d="M 122 2559 
L 122 2700 
Q 416 2713 611 2920 
Q 806 3128 873 3384 
Q 941 3641 947 3938 
L 1106 3938 
L 1106 2759 
L 2022 2759 
L 2022 2559 
L 1106 2559 
L 1106 781 
Q 1106 91 1538 91 
Q 1722 91 1844 280 
Q 1966 469 1966 806 
L 1966 1159 
L 2125 1159 
L 2125 794 
Q 2125 447 1965 187 
Q 1806 -72 1491 -72 
Q 1375 -72 1261 -42 
Q 1147 -13 998 64 
Q 850 141 758 330 
Q 666 519 666 794 
L 666 2559 
L 122 2559 
z
" transform="scale(0.015625)"/>
       <path id="CMUSerif-Roman-69" d="M 213 0 
L 213 197 
Q 553 197 631 239 
Q 709 281 709 488 
L 709 2209 
Q 709 2447 629 2503 
Q 550 2559 238 2559 
L 238 2759 
L 1131 2828 
L 1131 481 
Q 1131 291 1200 244 
Q 1269 197 1581 197 
L 1581 0 
Q 928 19 916 19 
Q 828 19 213 0 
z
M 481 3944 
Q 481 4072 579 4176 
Q 678 4281 818 4281 
Q 959 4281 1059 4186 
Q 1159 4091 1159 3942 
Q 1159 3794 1059 3698 
Q 959 3603 819 3603 
Q 672 3603 576 3706 
Q 481 3809 481 3944 
z
" transform="scale(0.015625)"/>
       <path id="CMUSerif-Roman-6d" d="M 206 0 
L 206 197 
Q 547 197 625 239 
Q 703 281 703 488 
L 703 2203 
Q 703 2441 620 2500 
Q 538 2559 206 2559 
L 206 2759 
L 1106 2828 
L 1106 2156 
Q 1406 2828 2053 2828 
Q 2803 2828 2906 2203 
Q 3016 2447 3245 2637 
Q 3475 2828 3834 2828 
Q 4316 2828 4506 2591 
Q 4647 2431 4675 2253 
Q 4703 2075 4703 1613 
L 4703 391 
Q 4709 256 4812 226 
Q 4916 197 5203 197 
L 5203 0 
Q 4550 19 4488 19 
Q 4438 19 3763 0 
L 3763 197 
Q 4103 197 4183 239 
Q 4263 281 4263 488 
L 4263 1978 
Q 4263 2303 4163 2495 
Q 4063 2688 3788 2688 
Q 3456 2688 3190 2409 
Q 2925 2131 2925 1663 
L 2925 488 
Q 2925 281 3004 239 
Q 3084 197 3425 197 
L 3425 0 
Q 2772 19 2706 19 
Q 2656 19 1984 0 
L 1984 197 
Q 2325 197 2404 239 
Q 2484 281 2484 488 
L 2484 1978 
Q 2484 2303 2384 2495 
Q 2284 2688 2009 2688 
Q 1678 2688 1412 2409 
Q 1147 2131 1147 1663 
L 1147 488 
Q 1147 281 1226 239 
Q 1306 197 1644 197 
L 1644 0 
Q 991 19 928 19 
Q 878 19 206 0 
z
" transform="scale(0.015625)"/>
       <path id="CMUSerif-Roman-61" d="M 269 609 
Q 269 1153 909 1441 
Q 1294 1625 2088 1672 
L 2088 1906 
Q 2088 2303 1880 2514 
Q 1672 2725 1409 2725 
Q 941 2725 716 2431 
Q 906 2425 975 2329 
Q 1044 2234 1044 2138 
Q 1044 2009 964 1926 
Q 884 1844 750 1844 
Q 622 1844 537 1923 
Q 453 2003 453 2144 
Q 453 2456 736 2662 
Q 1019 2869 1422 2869 
Q 1947 2869 2297 2516 
Q 2406 2406 2461 2265 
Q 2516 2125 2522 2033 
Q 2528 1941 2528 1759 
L 2528 481 
Q 2528 444 2540 381 
Q 2553 319 2611 239 
Q 2669 159 2766 159 
Q 2997 159 2994 569 
L 2994 928 
L 3156 928 
L 3156 569 
Q 3156 228 2976 95 
Q 2797 -38 2631 -38 
Q 2419 -38 2284 118 
Q 2150 275 2131 488 
Q 2034 244 1814 86 
Q 1594 -72 1294 -72 
Q 1063 -72 845 -14 
Q 628 44 448 205 
Q 269 366 269 609 
z
M 763 616 
Q 763 378 931 225 
Q 1100 72 1338 72 
Q 1606 72 1847 280 
Q 2088 488 2088 897 
L 2088 1538 
Q 1378 1513 1070 1230 
Q 763 947 763 616 
z
" transform="scale(0.015625)"/>
       <path id="CMUSerif-Roman-6c" d="M 213 0 
L 213 197 
Q 553 197 631 239 
Q 709 281 709 488 
L 709 3816 
Q 709 4053 626 4112 
Q 544 4172 213 4172 
L 213 4372 
L 1131 4441 
L 1131 488 
Q 1131 281 1212 239 
Q 1294 197 1631 197 
L 1631 0 
Q 1553 0 1390 6 
Q 1228 13 1109 16 
Q 991 19 922 19 
Q 847 19 213 0 
z
" transform="scale(0.015625)"/>
       <path id="CMUSerif-Roman-20" transform="scale(0.015625)"/>
       <path id="CMUSerif-Roman-4d" d="M 238 0 
L 238 197 
Q 469 197 616 242 
Q 763 288 817 373 
Q 872 459 884 517 
Q 897 575 897 672 
L 897 3872 
Q 897 4056 817 4114 
Q 738 4172 391 4172 
L 238 4172 
L 238 4372 
L 1319 4372 
Q 1434 4372 1465 4351 
Q 1497 4331 1544 4231 
L 2931 647 
L 4331 4250 
Q 4363 4341 4392 4356 
Q 4422 4372 4544 4372 
L 5625 4372 
L 5625 4172 
L 5472 4172 
Q 5125 4172 5045 4114 
Q 4966 4056 4966 3872 
L 4966 500 
Q 4966 316 5045 256 
Q 5125 197 5472 197 
L 5625 197 
L 5625 0 
Q 5388 19 4709 19 
Q 4025 19 3788 0 
L 3788 197 
L 3944 197 
Q 4291 197 4369 255 
Q 4447 313 4447 500 
L 4447 4172 
L 4441 4172 
L 2869 122 
Q 2825 0 2753 0 
Q 2675 0 2625 141 
L 1081 4122 
L 1075 4122 
L 1075 672 
Q 1075 575 1087 517 
Q 1100 459 1154 373 
Q 1209 288 1356 242 
Q 1503 197 1734 197 
L 1734 0 
Q 1063 19 986 19 
Q 909 19 238 0 
z
" transform="scale(0.015625)"/>
       <path id="CMUSerif-Roman-6b" d="M 178 0 
L 178 197 
Q 519 197 598 239 
Q 678 281 678 488 
L 678 3816 
Q 678 4053 595 4112 
Q 513 4172 178 4172 
L 178 4372 
L 1100 4441 
L 1100 1369 
L 2003 2150 
Q 2144 2272 2144 2400 
Q 2144 2547 1959 2559 
L 1959 2759 
Q 2228 2741 2675 2741 
Q 2938 2741 3122 2759 
L 3122 2559 
Q 2719 2541 2316 2216 
Q 2225 2144 2011 1958 
Q 1797 1772 1797 1753 
Q 1797 1747 1805 1731 
Q 1813 1716 1825 1703 
Q 1838 1691 1838 1684 
L 2650 538 
Q 2816 306 2937 251 
Q 3059 197 3272 197 
L 3272 0 
Q 2997 19 2713 19 
Q 2559 19 2022 0 
L 2022 197 
Q 2253 197 2253 347 
Q 2253 450 1734 1166 
Q 1697 1216 1613 1325 
Q 1534 1441 1491 1497 
L 1081 1147 
L 1081 488 
Q 1081 281 1161 239 
Q 1241 197 1581 197 
L 1581 0 
Q 1197 19 878 19 
Q 813 19 178 0 
z
" transform="scale(0.015625)"/>
       <path id="CMUSerif-Roman-65" d="M 178 1409 
Q 178 2013 565 2441 
Q 953 2869 1509 2869 
Q 2072 2869 2364 2503 
Q 2656 2138 2656 1613 
Q 2656 1516 2631 1497 
Q 2606 1478 2497 1478 
L 709 1478 
Q 709 825 903 519 
Q 1172 91 1625 91 
Q 1688 91 1763 103 
Q 1838 116 1991 170 
Q 2144 225 2278 372 
Q 2413 519 2491 750 
Q 2509 841 2572 838 
Q 2656 838 2656 763 
Q 2656 706 2595 579 
Q 2534 453 2418 303 
Q 2303 153 2079 40 
Q 1856 -72 1588 -72 
Q 1025 -72 601 354 
Q 178 781 178 1409 
z
M 716 1613 
L 2234 1613 
Q 2234 1747 2211 1897 
Q 2188 2047 2120 2255 
Q 2053 2463 1897 2594 
Q 1741 2725 1509 2725 
Q 1406 2725 1295 2681 
Q 1184 2638 1050 2531 
Q 916 2425 822 2184 
Q 728 1944 716 1613 
z
" transform="scale(0.015625)"/>
       <path id="CMUSerif-Roman-73" d="M 213 84 
L 213 928 
Q 213 1000 216 1025 
Q 219 1050 237 1069 
Q 256 1088 294 1088 
Q 338 1088 355 1069 
Q 372 1050 384 978 
Q 481 538 689 305 
Q 897 72 1275 72 
Q 1634 72 1815 231 
Q 1997 391 1997 653 
Q 1997 1122 1331 1241 
Q 947 1319 787 1370 
Q 628 1422 488 1538 
Q 213 1763 213 2081 
Q 213 2400 455 2634 
Q 697 2869 1234 2869 
Q 1594 2869 1838 2688 
Q 1909 2744 1947 2791 
Q 2031 2869 2075 2869 
Q 2125 2869 2134 2836 
Q 2144 2803 2144 2713 
L 2144 2069 
Q 2144 1997 2141 1972 
Q 2138 1947 2119 1930 
Q 2100 1913 2059 1913 
Q 1988 1913 1984 1972 
Q 1934 2747 1234 2747 
Q 856 2747 687 2601 
Q 519 2456 519 2259 
Q 519 2150 570 2067 
Q 622 1984 689 1936 
Q 756 1888 881 1842 
Q 1006 1797 1082 1781 
Q 1159 1766 1306 1734 
Q 1819 1638 2034 1428 
Q 2303 1159 2303 819 
Q 2303 441 2047 184 
Q 1791 -72 1275 -72 
Q 859 -72 569 206 
Q 531 169 503 136 
Q 475 103 464 90 
Q 453 78 450 70 
Q 447 63 441 56 
Q 313 -72 281 -72 
Q 231 -72 222 -39 
Q 213 -6 213 84 
z
" transform="scale(0.015625)"/>
       <path id="CMUSerif-Roman-6e" d="M 206 0 
L 206 197 
Q 547 197 625 239 
Q 703 281 703 488 
L 703 2203 
Q 703 2441 620 2500 
Q 538 2559 206 2559 
L 206 2759 
L 1106 2828 
L 1106 2156 
Q 1406 2828 2053 2828 
Q 2534 2828 2725 2591 
Q 2866 2431 2895 2253 
Q 2925 2075 2925 1613 
L 2925 391 
Q 2931 256 3034 226 
Q 3138 197 3425 197 
L 3425 0 
Q 2772 19 2706 19 
Q 2656 19 1984 0 
L 1984 197 
Q 2325 197 2404 239 
Q 2484 281 2484 488 
L 2484 1978 
Q 2484 2303 2384 2495 
Q 2284 2688 2009 2688 
Q 1678 2688 1412 2409 
Q 1147 2131 1147 1663 
L 1147 488 
Q 1147 281 1226 239 
Q 1306 197 1644 197 
L 1644 0 
Q 991 19 928 19 
Q 878 19 206 0 
z
" transform="scale(0.015625)"/>
       <path id="CMUSerif-Roman-28" d="M 634 1600 
Q 634 2681 1038 3553 
Q 1209 3919 1450 4225 
Q 1691 4531 1850 4665 
Q 2009 4800 2053 4800 
Q 2116 4800 2119 4738 
Q 2119 4706 2034 4628 
Q 1003 3578 1006 1600 
Q 1006 -384 2009 -1394 
Q 2119 -1503 2119 -1538 
Q 2119 -1600 2053 -1600 
Q 2009 -1600 1856 -1472 
Q 1703 -1344 1465 -1050 
Q 1228 -756 1056 -397 
Q 634 475 634 1600 
z
" transform="scale(0.015625)"/>
       <path id="CMUSerif-Roman-64" d="M 219 1375 
Q 219 1984 644 2406 
Q 1069 2828 1644 2828 
Q 2131 2828 2450 2431 
L 2450 3816 
Q 2450 4053 2367 4112 
Q 2284 4172 1953 4172 
L 1953 4372 
L 2875 4441 
L 2875 556 
Q 2875 319 2958 258 
Q 3041 197 3372 197 
L 3372 0 
L 2431 -72 
L 2431 353 
Q 2100 -69 1575 -72 
Q 1025 -72 622 350 
Q 219 772 219 1375 
z
M 750 1369 
Q 750 775 934 481 
Q 1191 72 1606 72 
Q 2081 72 2363 519 
Q 2434 628 2431 756 
L 2431 2069 
Q 2431 2197 2363 2303 
Q 2100 2688 1672 2688 
Q 1225 2688 947 2278 
Q 750 1972 750 1369 
z
" transform="scale(0.015625)"/>
       <path id="CMUSerif-Roman-79" d="M 122 -794 
Q 122 -659 201 -589 
Q 281 -519 391 -519 
Q 506 -519 582 -592 
Q 659 -666 659 -788 
Q 659 -1025 409 -1056 
Q 531 -1172 709 -1172 
Q 900 -1172 1054 -1031 
Q 1209 -891 1276 -756 
Q 1344 -622 1441 -378 
Q 1531 -188 1600 0 
L 641 2338 
Q 578 2491 481 2525 
Q 384 2559 122 2559 
L 122 2759 
Q 409 2741 744 2741 
Q 941 2741 1441 2759 
L 1441 2559 
Q 1081 2559 1081 2394 
Q 1081 2375 1119 2278 
L 1831 556 
L 2478 2131 
Q 2516 2222 2516 2284 
Q 2516 2547 2216 2559 
L 2216 2759 
Q 2638 2741 2772 2741 
Q 3034 2741 3250 2759 
L 3250 2559 
Q 2822 2559 2656 2150 
L 1528 -581 
Q 1222 -1309 709 -1313 
Q 466 -1313 294 -1163 
Q 122 -1013 122 -794 
z
" transform="scale(0.015625)"/>
       <path id="CMUSerif-Roman-29" d="M 366 -1538 
Q 366 -1506 447 -1428 
Q 1478 -378 1478 1600 
Q 1478 3584 488 4588 
Q 366 4703 366 4738 
Q 366 4800 428 4800 
Q 472 4800 626 4672 
Q 781 4544 1017 4250 
Q 1253 3956 1428 3597 
Q 1850 2725 1850 1600 
Q 1850 519 1447 -353 
Q 1275 -719 1034 -1025 
Q 794 -1331 634 -1465 
Q 475 -1600 428 -1600 
Q 366 -1600 366 -1538 
z
" transform="scale(0.015625)"/>
      </defs>
      <use xlink:href="#CMUSerif-Roman-4f"/>
      <use xlink:href="#CMUSerif-Roman-70" transform="translate(77.685547 0)"/>
      <use xlink:href="#CMUSerif-Roman-74" transform="translate(133.154297 0)"/>
      <use xlink:href="#CMUSerif-Roman-69" transform="translate(171.923828 0)"/>
      <use xlink:href="#CMUSerif-Roman-6d" transform="translate(199.609375 0)"/>
      <use xlink:href="#CMUSerif-Roman-61" transform="translate(282.861328 0)"/>
      <use xlink:href="#CMUSerif-Roman-6c" transform="translate(332.861328 0)"/>
      <use xlink:href="#CMUSerif-Roman-20" transform="translate(360.546875 0)"/>
      <use xlink:href="#CMUSerif-Roman-4d" transform="translate(393.798828 0)"/>
      <use xlink:href="#CMUSerif-Roman-61" transform="translate(485.351562 0)"/>
      <use xlink:href="#CMUSerif-Roman-6b" transform="translate(535.351562 0)"/>
      <use xlink:href="#CMUSerif-Roman-65" transform="translate(588.037109 0)"/>
      <use xlink:href="#CMUSerif-Roman-73" transform="translate(632.421875 0)"/>
      <use xlink:href="#CMUSerif-Roman-70" transform="translate(671.777344 0)"/>
      <use xlink:href="#CMUSerif-Roman-61" transform="translate(727.246094 0)"/>
      <use xlink:href="#CMUSerif-Roman-6e" transform="translate(777.246094 0)"/>
      <use xlink:href="#CMUSerif-Roman-20" transform="translate(832.714844 0)"/>
      <use xlink:href="#CMUSerif-Roman-28" transform="translate(865.966797 0)"/>
      <use xlink:href="#CMUSerif-Roman-64" transform="translate(904.736328 0)"/>
      <use xlink:href="#CMUSerif-Roman-61" transform="translate(960.205078 0)"/>
      <use xlink:href="#CMUSerif-Roman-79" transform="translate(1010.205078 0)"/>
      <use xlink:href="#CMUSerif-Roman-73" transform="translate(1062.890625 0)"/>
      <use xlink:href="#CMUSerif-Roman-29" transform="translate(1102.246094 0)"/>
     </g>
    </g>
   </g>
   <g id="matplotlib.axis_2">
    <g id="ytick_1">
     <g id="line2d_11">
      <path d="M 40.333594 113.55143 
L 215.422469 113.55143 
" clip-path="url(#p1a5672478e)" style="fill: none; stroke-dasharray: 0.8,1.32; stroke-dashoffset: 0; stroke: #b0b0b0; stroke-opacity: 0.55; stroke-width: 0.8"/>
     </g>
     <g id="line2d_12">
      <defs>
       <path id="meb8802f844" d="M 0 0 
L -3.5 0 
" style="stroke: #000000; stroke-width: 0.8"/>
      </defs>
      <g>
       <use xlink:href="#meb8802f844" x="40.333594" y="113.55143" style="stroke: #000000; stroke-width: 0.8"/>
      </g>
     </g>
     <g id="text_7">
      <!-- 0.50 -->
      <g transform="translate(20 116.153578) scale(0.075 -0.075)">
       <defs>
        <path id="CMUSerif-Roman-2e" d="M 641 103 
Q 544 206 544 340 
Q 544 475 641 573 
Q 738 672 884 672 
Q 1025 672 1120 580 
Q 1216 488 1216 339 
Q 1216 191 1114 95 
Q 1013 0 884 0 
Q 738 0 641 103 
z
" transform="scale(0.015625)"/>
        <path id="CMUSerif-Roman-35" d="M 319 1031 
Q 319 1222 422 1295 
Q 525 1369 634 1369 
Q 781 1369 867 1276 
Q 953 1184 953 1056 
Q 953 928 867 836 
Q 781 744 634 744 
Q 563 744 525 756 
Q 609 463 867 250 
Q 1125 38 1466 38 
Q 1894 38 2150 453 
Q 2303 722 2303 1331 
Q 2303 1869 2188 2138 
Q 2009 2547 1644 2547 
Q 1125 2547 819 2100 
Q 781 2044 738 2041 
Q 675 2041 661 2077 
Q 647 2113 647 2209 
L 647 4103 
Q 647 4256 709 4256 
Q 734 4256 788 4238 
Q 1191 4059 1638 4056 
Q 2097 4056 2509 4244 
Q 2541 4263 2559 4263 
Q 2622 4263 2625 4191 
Q 2625 4166 2573 4092 
Q 2522 4019 2412 3923 
Q 2303 3828 2162 3737 
Q 2022 3647 1817 3586 
Q 1613 3525 1388 3525 
Q 1119 3525 844 3609 
L 844 2363 
Q 1175 2688 1656 2688 
Q 2169 2688 2522 2275 
Q 2875 1863 2875 1288 
Q 2875 684 2458 271 
Q 2041 -141 1478 -141 
Q 966 -141 642 225 
Q 319 591 319 1031 
z
" transform="scale(0.015625)"/>
       </defs>
       <use xlink:href="#CMUSerif-Roman-30"/>
       <use xlink:href="#CMUSerif-Roman-2e" transform="translate(50 0)"/>
       <use xlink:href="#CMUSerif-Roman-35" transform="translate(77.783203 0)"/>
       <use xlink:href="#CMUSerif-Roman-30" transform="translate(127.783203 0)"/>
      </g>
     </g>
    </g>
    <g id="ytick_2">
     <g id="line2d_13">
      <path d="M 40.333594 95.654087 
L 215.422469 95.654087 
" clip-path="url(#p1a5672478e)" style="fill: none; stroke-dasharray: 0.8,1.32; stroke-dashoffset: 0; stroke: #b0b0b0; stroke-opacity: 0.55; stroke-width: 0.8"/>
     </g>
     <g id="line2d_14">
      <g>
       <use xlink:href="#meb8802f844" x="40.333594" y="95.654087" style="stroke: #000000; stroke-width: 0.8"/>
      </g>
     </g>
     <g id="text_8">
      <!-- 0.52 -->
      <g transform="translate(20 98.256236) scale(0.075 -0.075)">
       <use xlink:href="#CMUSerif-Roman-30"/>
       <use xlink:href="#CMUSerif-Roman-2e" transform="translate(50 0)"/>
       <use xlink:href="#CMUSerif-Roman-35" transform="translate(77.783203 0)"/>
       <use xlink:href="#CMUSerif-Roman-32" transform="translate(127.783203 0)"/>
      </g>
     </g>
    </g>
    <g id="ytick_3">
     <g id="line2d_15">
      <path d="M 40.333594 77.756744 
L 215.422469 77.756744 
" clip-path="url(#p1a5672478e)" style="fill: none; stroke-dasharray: 0.8,1.32; stroke-dashoffset: 0; stroke: #b0b0b0; stroke-opacity: 0.55; stroke-width: 0.8"/>
     </g>
     <g id="line2d_16">
      <g>
       <use xlink:href="#meb8802f844" x="40.333594" y="77.756744" style="stroke: #000000; stroke-width: 0.8"/>
      </g>
     </g>
     <g id="text_9">
      <!-- 0.54 -->
      <g transform="translate(20 80.358893) scale(0.075 -0.075)">
       <use xlink:href="#CMUSerif-Roman-30"/>
       <use xlink:href="#CMUSerif-Roman-2e" transform="translate(50 0)"/>
       <use xlink:href="#CMUSerif-Roman-35" transform="translate(77.783203 0)"/>
       <use xlink:href="#CMUSerif-Roman-34" transform="translate(127.783203 0)"/>
      </g>
     </g>
    </g>
    <g id="ytick_4">
     <g id="line2d_17">
      <path d="M 40.333594 59.859402 
L 215.422469 59.859402 
" clip-path="url(#p1a5672478e)" style="fill: none; stroke-dasharray: 0.8,1.32; stroke-dashoffset: 0; stroke: #b0b0b0; stroke-opacity: 0.55; stroke-width: 0.8"/>
     </g>
     <g id="line2d_18">
      <g>
       <use xlink:href="#meb8802f844" x="40.333594" y="59.859402" style="stroke: #000000; stroke-width: 0.8"/>
      </g>
     </g>
     <g id="text_10">
      <!-- 0.56 -->
      <g transform="translate(20 62.46155) scale(0.075 -0.075)">
       <use xlink:href="#CMUSerif-Roman-30"/>
       <use xlink:href="#CMUSerif-Roman-2e" transform="translate(50 0)"/>
       <use xlink:href="#CMUSerif-Roman-35" transform="translate(77.783203 0)"/>
       <use xlink:href="#CMUSerif-Roman-36" transform="translate(127.783203 0)"/>
      </g>
     </g>
    </g>
    <g id="ytick_5">
     <g id="line2d_19">
      <path d="M 40.333594 41.962059 
L 215.422469 41.962059 
" clip-path="url(#p1a5672478e)" style="fill: none; stroke-dasharray: 0.8,1.32; stroke-dashoffset: 0; stroke: #b0b0b0; stroke-opacity: 0.55; stroke-width: 0.8"/>
     </g>
     <g id="line2d_20">
      <g>
       <use xlink:href="#meb8802f844" x="40.333594" y="41.962059" style="stroke: #000000; stroke-width: 0.8"/>
      </g>
     </g>
     <g id="text_11">
      <!-- 0.58 -->
      <g transform="translate(20 44.564207) scale(0.075 -0.075)">
       <use xlink:href="#CMUSerif-Roman-30"/>
       <use xlink:href="#CMUSerif-Roman-2e" transform="translate(50 0)"/>
       <use xlink:href="#CMUSerif-Roman-35" transform="translate(77.783203 0)"/>
       <use xlink:href="#CMUSerif-Roman-38" transform="translate(127.783203 0)"/>
      </g>
     </g>
    </g>
    <g id="ytick_6">
     <g id="line2d_21">
      <path d="M 40.333594 24.064716 
L 215.422469 24.064716 
" clip-path="url(#p1a5672478e)" style="fill: none; stroke-dasharray: 0.8,1.32; stroke-dashoffset: 0; stroke: #b0b0b0; stroke-opacity: 0.55; stroke-width: 0.8"/>
     </g>
     <g id="line2d_22">
      <g>
       <use xlink:href="#meb8802f844" x="40.333594" y="24.064716" style="stroke: #000000; stroke-width: 0.8"/>
      </g>
     </g>
     <g id="text_12">
      <!-- 0.60 -->
      <g transform="translate(20 26.666865) scale(0.075 -0.075)">
       <use xlink:href="#CMUSerif-Roman-30"/>
       <use xlink:href="#CMUSerif-Roman-2e" transform="translate(50 0)"/>
       <use xlink:href="#CMUSerif-Roman-36" transform="translate(77.783203 0)"/>
       <use xlink:href="#CMUSerif-Roman-30" transform="translate(127.783203 0)"/>
      </g>
     </g>
    </g>
    <g id="text_13">
     <!-- Labor Cost ($\times 10^6$ USD) -->
     <g transform="translate(14 105.7325) rotate(-90) scale(0.08 -0.08)">
      <defs>
       <path id="CMUSerif-Roman-4c" d="M 213 0 
L 213 197 
L 366 197 
Q 713 197 792 255 
Q 872 313 872 500 
L 872 3872 
Q 872 4056 790 4114 
Q 709 4172 366 4172 
L 213 4172 
L 213 4372 
Q 438 4353 1184 4353 
Q 2028 4353 2259 4372 
L 2259 4172 
L 2047 4172 
Q 1753 4172 1618 4134 
Q 1484 4097 1462 4045 
Q 1441 3994 1441 3866 
L 1441 453 
Q 1441 288 1489 242 
Q 1538 197 1753 197 
L 2278 197 
Q 2603 197 2837 294 
Q 3072 391 3197 512 
Q 3322 634 3405 864 
Q 3488 1094 3514 1241 
Q 3541 1388 3566 1650 
L 3725 1650 
L 3547 0 
L 213 0 
z
" transform="scale(0.015625)"/>
       <path id="CMUSerif-Roman-62" d="M 178 4172 
L 178 4372 
L 1100 4441 
L 1100 2413 
Q 1472 2828 1978 2828 
Q 2528 2828 2931 2406 
Q 3334 1984 3334 1381 
Q 3334 772 2912 350 
Q 2491 -72 1906 -72 
Q 1375 -72 1069 397 
Q 844 6 838 0 
L 678 0 
L 678 3816 
Q 678 4053 593 4112 
Q 509 4172 178 4172 
z
M 1119 728 
Q 1119 594 1209 459 
Q 1463 72 1875 72 
Q 1878 72 1881 72 
Q 2328 72 2606 481 
Q 2803 788 2803 1388 
Q 2803 1981 2619 2278 
Q 2363 2688 1947 2688 
Q 1478 2688 1191 2278 
Q 1119 2175 1119 2047 
L 1119 728 
z
" transform="scale(0.015625)"/>
       <path id="CMUSerif-Roman-6f" d="M 601 345 
Q 178 763 178 1370 
Q 178 1978 592 2423 
Q 1006 2869 1600 2869 
Q 2181 2869 2598 2426 
Q 3016 1984 3016 1369 
Q 3016 766 2595 347 
Q 2175 -72 1594 -72 
Q 1025 -72 601 345 
z
M 709 1422 
Q 709 800 872 519 
Q 1122 91 1600 91 
Q 1838 91 2036 219 
Q 2234 347 2344 563 
Q 2484 844 2484 1422 
Q 2484 2038 2316 2309 
Q 2066 2725 1594 2725 
Q 1388 2725 1186 2617 
Q 984 2509 863 2297 
Q 709 2016 709 1422 
z
" transform="scale(0.015625)"/>
       <path id="CMUSerif-Roman-72" d="M 178 0 
L 178 197 
Q 519 197 598 239 
Q 678 281 678 488 
L 678 2203 
Q 678 2441 595 2500 
Q 513 2559 178 2559 
L 178 2759 
L 1069 2828 
L 1069 2125 
Q 1159 2400 1351 2614 
Q 1544 2828 1856 2828 
Q 2063 2828 2195 2712 
Q 2328 2597 2328 2438 
Q 2328 2297 2242 2226 
Q 2156 2156 2053 2156 
Q 1938 2156 1858 2229 
Q 1778 2303 1778 2431 
Q 1778 2509 1814 2570 
Q 1850 2631 1878 2653 
Q 1906 2675 1925 2681 
Q 1913 2688 1856 2688 
Q 1503 2688 1301 2336 
Q 1100 1984 1100 1484 
L 1100 500 
Q 1100 316 1176 256 
Q 1253 197 1588 197 
L 1722 197 
L 1722 0 
Q 1466 19 909 19 
Q 831 19 709 16 
Q 588 13 428 6 
Q 269 0 178 0 
z
" transform="scale(0.015625)"/>
       <path id="CMUSerif-Roman-43" d="M 359 2188 
Q 359 3153 1018 3833 
Q 1678 4513 2584 4513 
Q 2866 4513 3116 4409 
Q 3366 4306 3481 4217 
Q 3597 4128 3763 3963 
L 4084 4434 
Q 4134 4513 4186 4513 
Q 4238 4513 4247 4483 
Q 4256 4453 4256 4359 
L 4256 2841 
Q 4256 2738 4243 2713 
Q 4231 2688 4153 2688 
Q 4091 2688 4077 2706 
Q 4063 2725 4050 2797 
Q 3953 3488 3570 3900 
Q 3188 4313 2656 4313 
Q 2503 4313 2333 4278 
Q 2163 4244 1917 4112 
Q 1672 3981 1483 3764 
Q 1294 3547 1156 3136 
Q 1019 2725 1019 2181 
Q 1019 1644 1156 1231 
Q 1294 819 1483 605 
Q 1672 391 1917 259 
Q 2163 128 2336 92 
Q 2509 56 2663 56 
Q 3213 56 3634 447 
Q 4056 838 4097 1497 
Q 4103 1528 4103 1542 
Q 4103 1556 4109 1572 
Q 4116 1588 4131 1594 
Q 4147 1600 4172 1600 
Q 4256 1600 4256 1491 
Q 4256 881 3789 370 
Q 3322 -141 2584 -141 
Q 1675 -141 1017 534 
Q 359 1209 359 2188 
z
" transform="scale(0.015625)"/>
       <path id="Cmsy10-a3" d="M 941 184 
Q 941 234 972 275 
L 2303 1600 
L 972 2931 
Q 941 2963 941 3016 
Q 941 3063 978 3103 
Q 1016 3144 1069 3144 
Q 1113 3144 1166 3103 
L 2491 1778 
L 3809 3103 
Q 3863 3144 3903 3144 
Q 3956 3144 3993 3106 
Q 4031 3069 4031 3016 
Q 4031 2963 4000 2931 
L 2669 1600 
L 4000 275 
Q 4031 234 4031 184 
Q 4031 131 3993 93 
Q 3956 56 3903 56 
Q 3856 56 3809 103 
L 2491 1422 
L 1166 103 
Q 1119 56 1069 56 
Q 1016 56 978 97 
Q 941 138 941 184 
z
" transform="scale(0.015625)"/>
       <path id="Cmr10-31" d="M 594 0 
L 594 225 
Q 1394 225 1394 428 
L 1394 3788 
Q 1063 3628 556 3628 
L 556 3853 
Q 1341 3853 1741 4263 
L 1831 4263 
Q 1853 4263 1873 4245 
Q 1894 4228 1894 4206 
L 1894 428 
Q 1894 225 2694 225 
L 2694 0 
L 594 0 
z
" transform="scale(0.015625)"/>
       <path id="Cmr10-30" d="M 1600 -141 
Q 816 -141 533 504 
Q 250 1150 250 2041 
Q 250 2597 351 3087 
Q 453 3578 754 3920 
Q 1056 4263 1600 4263 
Q 2022 4263 2290 4056 
Q 2559 3850 2700 3523 
Q 2841 3197 2892 2823 
Q 2944 2450 2944 2041 
Q 2944 1491 2842 1011 
Q 2741 531 2444 195 
Q 2147 -141 1600 -141 
z
M 1600 25 
Q 1956 25 2131 390 
Q 2306 756 2347 1200 
Q 2388 1644 2388 2144 
Q 2388 2625 2347 3031 
Q 2306 3438 2132 3767 
Q 1959 4097 1600 4097 
Q 1238 4097 1063 3765 
Q 888 3434 847 3029 
Q 806 2625 806 2144 
Q 806 1788 823 1472 
Q 841 1156 916 820 
Q 991 484 1158 254 
Q 1325 25 1600 25 
z
" transform="scale(0.015625)"/>
       <path id="Cmr10-36" d="M 1600 -141 
Q 1203 -141 937 70 
Q 672 281 526 617 
Q 381 953 325 1322 
Q 269 1691 269 2069 
Q 269 2575 466 3084 
Q 663 3594 1045 3928 
Q 1428 4263 1953 4263 
Q 2172 4263 2361 4180 
Q 2550 4097 2658 3936 
Q 2766 3775 2766 3547 
Q 2766 3416 2677 3327 
Q 2588 3238 2456 3238 
Q 2331 3238 2240 3328 
Q 2150 3419 2150 3547 
Q 2150 3672 2240 3762 
Q 2331 3853 2456 3853 
L 2491 3853 
Q 2409 3969 2261 4023 
Q 2113 4078 1953 4078 
Q 1759 4078 1595 3993 
Q 1431 3909 1300 3765 
Q 1169 3622 1081 3448 
Q 994 3275 945 3053 
Q 897 2831 884 2637 
Q 872 2444 872 2150 
Q 984 2413 1190 2580 
Q 1397 2747 1656 2747 
Q 1941 2747 2175 2631 
Q 2409 2516 2578 2311 
Q 2747 2106 2836 1843 
Q 2925 1581 2925 1313 
Q 2925 938 2758 598 
Q 2591 259 2287 59 
Q 1984 -141 1600 -141 
z
M 1600 63 
Q 1847 63 1997 175 
Q 2147 288 2217 473 
Q 2288 659 2305 848 
Q 2322 1038 2322 1313 
Q 2322 1675 2287 1931 
Q 2253 2188 2100 2383 
Q 1947 2578 1631 2578 
Q 1372 2578 1205 2403 
Q 1038 2228 961 1961 
Q 884 1694 884 1447 
Q 884 1363 891 1319 
Q 891 1309 889 1303 
Q 888 1297 884 1288 
Q 884 1013 940 731 
Q 997 450 1156 256 
Q 1316 63 1600 63 
z
" transform="scale(0.015625)"/>
       <path id="CMUSerif-Roman-55" d="M 213 4172 
L 213 4372 
Q 438 4353 1159 4353 
Q 1875 4353 2100 4372 
L 2100 4172 
L 1947 4172 
Q 1600 4172 1520 4114 
Q 1441 4056 1441 3872 
L 1441 1434 
Q 1441 1006 1559 711 
Q 1678 416 1862 284 
Q 2047 153 2198 104 
Q 2350 56 2497 56 
Q 2984 56 3354 443 
Q 3725 831 3725 1478 
L 3725 3700 
Q 3725 3797 3712 3853 
Q 3700 3909 3645 3996 
Q 3591 4084 3444 4128 
Q 3297 4172 3066 4172 
L 3066 4372 
Q 3756 4353 3828 4353 
Q 3891 4353 4581 4372 
L 4581 4172 
Q 4350 4172 4203 4131 
Q 4056 4091 4003 4000 
Q 3950 3909 3936 3845 
Q 3922 3781 3922 3675 
L 3922 1625 
Q 3922 1313 3903 1184 
Q 3819 628 3423 243 
Q 3028 -141 2484 -141 
Q 1825 -141 1348 323 
Q 872 788 872 1459 
L 872 3872 
Q 872 4056 790 4114 
Q 709 4172 366 4172 
L 213 4172 
z
" transform="scale(0.015625)"/>
       <path id="CMUSerif-Roman-53" d="M 359 13 
L 359 1294 
Q 359 1366 362 1391 
Q 366 1416 384 1434 
Q 403 1453 441 1453 
Q 513 1453 519 1388 
Q 538 753 916 403 
Q 1288 56 1925 56 
Q 2309 56 2546 332 
Q 2784 609 2784 972 
Q 2784 1319 2584 1563 
Q 2500 1672 2395 1742 
Q 2291 1813 2227 1834 
Q 2163 1856 2041 1888 
Q 1247 2078 1197 2100 
Q 819 2228 589 2551 
Q 359 2875 359 3272 
Q 359 3784 720 4148 
Q 1081 4513 1606 4513 
Q 1869 4513 2089 4430 
Q 2309 4347 2400 4272 
Q 2491 4197 2631 4063 
L 2853 4428 
Q 2903 4513 2950 4513 
Q 3000 4513 3011 4483 
Q 3022 4453 3022 4359 
L 3022 3072 
Q 3022 3000 3019 2975 
Q 3016 2950 2995 2934 
Q 2975 2919 2938 2919 
Q 2875 2919 2859 2994 
Q 2681 4331 1613 4331 
Q 1247 4331 1008 4086 
Q 769 3841 769 3494 
Q 769 3213 944 2983 
Q 1119 2753 1416 2681 
L 2234 2484 
Q 2644 2388 2919 2025 
Q 3194 1663 3194 1191 
Q 3194 647 2839 253 
Q 2484 -141 1931 -141 
Q 1534 -141 1228 -9 
Q 922 122 756 306 
Q 628 94 544 -25 
L 525 -56 
Q 475 -141 428 -141 
Q 378 -141 368 -109 
Q 359 -78 359 13 
z
" transform="scale(0.015625)"/>
       <path id="CMUSerif-Roman-44" d="M 225 0 
L 225 197 
L 378 197 
Q 725 197 804 255 
Q 884 313 884 500 
L 884 3872 
Q 884 4056 803 4114 
Q 722 4172 378 4172 
L 225 4172 
L 225 4372 
L 2566 4372 
Q 3384 4372 3954 3719 
Q 4525 3066 4525 2150 
Q 4525 1253 3951 626 
Q 3378 0 2566 0 
L 225 0 
z
M 1434 453 
Q 1434 288 1481 242 
Q 1528 197 1747 197 
L 2394 197 
Q 2816 197 3100 370 
Q 3384 544 3531 744 
Q 3884 1225 3884 2150 
Q 3884 3122 3553 3578 
Q 3125 4172 2388 4172 
L 1747 4172 
Q 1528 4172 1481 4128 
Q 1434 4084 1434 3916 
L 1434 453 
z
" transform="scale(0.015625)"/>
      </defs>
      <use xlink:href="#CMUSerif-Roman-4c" transform="translate(0 0.109375)"/>
      <use xlink:href="#CMUSerif-Roman-61" transform="translate(62.5 0.109375)"/>
      <use xlink:href="#CMUSerif-Roman-62" transform="translate(112.5 0.109375)"/>
      <use xlink:href="#CMUSerif-Roman-6f" transform="translate(167.96875 0.109375)"/>
      <use xlink:href="#CMUSerif-Roman-72" transform="translate(217.96875 0.109375)"/>
      <use xlink:href="#CMUSerif-Roman-20" transform="translate(257.03125 0.109375)"/>
      <use xlink:href="#CMUSerif-Roman-43" transform="translate(290.283203 0.109375)"/>
      <use xlink:href="#CMUSerif-Roman-6f" transform="translate(362.451172 0.109375)"/>
      <use xlink:href="#CMUSerif-Roman-73" transform="translate(412.451172 0.109375)"/>
      <use xlink:href="#CMUSerif-Roman-74" transform="translate(451.806641 0.109375)"/>
      <use xlink:href="#CMUSerif-Roman-20" transform="translate(490.576172 0.109375)"/>
      <use xlink:href="#CMUSerif-Roman-28" transform="translate(523.828125 0.109375)"/>
      <use xlink:href="#Cmsy10-a3" transform="translate(562.597656 0.109375)"/>
      <use xlink:href="#Cmr10-31" transform="translate(640.283203 0.109375)"/>
      <use xlink:href="#Cmr10-30" transform="translate(690.283203 0.109375)"/>
      <use xlink:href="#Cmr10-36" transform="translate(744.747344 38.373438) scale(0.7)"/>
      <use xlink:href="#CMUSerif-Roman-20" transform="translate(786.124687 0.109375)"/>
      <use xlink:href="#CMUSerif-Roman-55" transform="translate(819.376641 0.109375)"/>
      <use xlink:href="#CMUSerif-Roman-53" transform="translate(894.376641 0.109375)"/>
      <use xlink:href="#CMUSerif-Roman-44" transform="translate(949.845391 0.109375)"/>
      <use xlink:href="#CMUSerif-Roman-29" transform="translate(1026.114922 0.109375)"/>
     </g>
    </g>
   </g>
   <g id="line2d_23">
    <path d="M 88.989616 12.284773 
L 89.076469 12.436842 
L 89.538936 14.048438 
L 89.851937 14.221729 
L 89.958318 14.660276 
L 90.060626 15.998904 
L 90.549834 16.112879 
L 90.640418 16.914202 
L 90.889922 17.044057 
L 91.132647 17.954722 
L 91.572471 20.236044 
L 91.802077 20.2476 
L 91.911669 20.462039 
L 91.929281 20.893743 
L 92.135087 21.070406 
L 92.189651 21.447571 
L 92.463006 21.510265 
L 92.89237 22.162271 
L 92.996042 22.212265 
L 93.10555 22.791064 
L 93.361146 22.920311 
L 93.381247 23.300594 
L 93.663986 23.397456 
L 93.849984 23.699706 
L 93.887953 24.424101 
L 94.141712 24.606383 
L 94.166735 24.824661 
L 94.166735 24.824661 
L 94.364885 24.999383 
L 94.651486 25.168552 
L 94.827706 25.546406 
L 94.937131 26.68633 
L 95.141332 26.846528 
L 95.518642 27.721658 
L 95.540406 27.744918 
L 95.540406 27.744918 
L 95.577456 27.99305 
L 95.805787 28.219594 
L 95.956171 29.006317 
L 97.037843 30.052719 
L 97.037843 30.052719 
L 97.194625 30.667889 
L 97.254743 30.869076 
L 97.254743 30.869076 
L 97.482974 31.420417 
L 97.609949 31.85658 
L 97.888497 31.931244 
L 98.057893 32.569114 
L 98.308732 32.645836 
L 98.315247 32.871243 
L 98.960037 33.539335 
L 99.068341 34.265117 
L 99.326488 34.559224 
L 99.416553 34.773455 
L 99.7756 34.983856 
L 100.087392 35.381464 
L 100.087392 35.381464 
L 100.318097 35.611297 
L 100.410825 35.883192 
L 100.410825 35.883192 
L 100.504797 36.155948 
L 100.56732 36.530199 
L 100.79326 36.545706 
L 101.146369 37.325186 
L 101.76544 37.788053 
L 101.782331 38.206467 
L 102.780871 39.484265 
L 102.780871 39.484265 
L 102.787927 39.600808 
L 103.191687 40.198033 
L 103.374691 40.21438 
L 103.704601 41.125751 
L 103.704601 41.125751 
L 104.001824 41.582825 
L 104.001824 41.582825 
L 104.725083 41.779931 
L 104.725083 41.779931 
L 104.878018 42.426394 
L 104.878018 42.426394 
L 105.114612 42.648092 
L 105.400561 43.078164 
L 105.400561 43.078164 
L 105.760293 43.319162 
L 105.819159 43.703648 
L 105.819159 43.703648 
L 106.111028 43.845184 
L 106.231337 44.088831 
L 106.535977 44.296599 
L 106.5511 44.426819 
L 106.912408 44.65558 
L 107.123791 44.802995 
L 107.268533 44.99187 
L 107.268533 44.99187 
L 107.285006 44.993468 
L 107.285006 44.993468 
L 107.424669 45.566618 
L 107.595709 45.666467 
L 107.735431 45.768131 
L 107.940557 46.363376 
L 107.940557 46.363376 
L 108.079795 46.479254 
L 108.45042 47.067434 
L 108.461748 47.184793 
L 108.673749 47.236914 
L 108.890327 47.365106 
L 109.040895 47.653004 
L 109.117833 47.689664 
L 109.154482 47.80658 
L 109.546737 48.354516 
L 109.546737 48.354516 
L 109.844039 48.429341 
L 109.971769 48.943687 
L 110.857707 49.980743 
L 111.173535 50.110602 
L 111.328923 50.200108 
L 111.328923 50.200108 
L 111.358546 50.570707 
L 111.73739 50.617107 
L 111.793177 51.058587 
L 112.122334 51.27832 
L 112.122334 51.27832 
L 112.149334 51.584593 
L 112.149334 51.584593 
L 112.414931 51.644692 
L 112.521276 51.888069 
L 113.157539 52.615865 
L 113.362158 52.699947 
L 113.432301 52.916858 
L 114.107017 53.441219 
L 114.15514 53.773949 
L 114.464091 54.096598 
L 114.464091 54.096598 
L 114.76297 54.195435 
L 115.007651 54.687449 
L 115.337914 54.812019 
L 115.567428 55.08393 
L 116.090591 55.477266 
L 116.109394 55.790049 
L 116.527961 56.026483 
L 116.66888 56.054883 
L 116.856881 56.469745 
L 117.16256 56.6889 
L 117.242765 56.854835 
L 117.754806 57.144045 
L 117.849108 57.646372 
L 117.849108 57.646372 
L 118.187462 57.797478 
L 118.187462 57.797478 
L 118.585444 58.18892 
L 119.148495 58.327854 
L 119.162242 58.594558 
L 119.162242 58.594558 
L 119.385281 58.708414 
L 119.517502 58.990358 
L 119.796545 59.252466 
L 119.796545 59.252466 
L 120.510627 59.475024 
L 120.684525 59.712017 
L 120.748875 59.747816 
L 121.077551 60.321612 
L 121.583752 60.468015 
L 121.583752 60.468015 
L 121.666826 60.662216 
L 121.917596 60.881748 
L 122.129636 61.273344 
L 122.412292 61.325013 
L 122.503522 61.784359 
L 122.503522 61.784359 
L 122.893983 61.961125 
L 122.985786 62.167484 
L 123.525511 62.504649 
L 124.465925 63.284433 
L 125.093809 63.359667 
L 125.108952 63.561363 
L 125.607815 63.602115 
L 125.66453 64.127033 
L 126.301017 64.287995 
L 126.301017 64.287995 
L 126.349133 64.755853 
L 126.574836 64.875548 
L 127.630635 66.03386 
L 127.943399 66.173131 
L 128.006057 66.404487 
L 128.006057 66.404487 
L 129.007128 66.604621 
L 129.02446 67.017213 
L 129.354246 67.108298 
L 129.490505 67.349101 
L 129.644636 67.408096 
L 129.644636 67.408096 
L 129.708757 67.572454 
L 130.600942 68.004936 
L 130.902447 68.375425 
L 131.240172 69.145737 
L 131.73375 69.263217 
L 131.73375 69.263217 
L 132.143553 69.724394 
L 132.143553 69.724394 
L 132.511507 69.727483 
L 132.603728 70.394372 
L 132.76015 70.516276 
L 134.263136 70.538607 
L 134.274256 70.755465 
L 134.274256 70.755465 
L 134.662419 70.897841 
L 134.662419 70.897841 
L 134.747246 71.236203 
L 135.238707 71.922493 
L 135.470398 71.928142 
L 135.710781 72.283619 
L 136.185304 72.557926 
L 136.396232 72.650106 
L 136.506818 73.037142 
L 136.557955 73.098085 
L 137.047492 73.193009 
L 137.60852 73.771125 
L 138.083493 73.934375 
L 138.271897 74.227947 
L 138.490835 74.295936 
L 138.522561 74.554172 
L 138.918875 74.719916 
L 139.148025 74.82419 
L 139.250379 75.109933 
L 139.436332 75.374615 
L 139.756357 75.717452 
L 139.889906 75.819331 
L 139.966895 75.915228 
L 139.966895 75.915228 
L 140.302123 76.031327 
L 140.344757 76.464448 
L 140.735774 76.558025 
L 141.379597 77.031547 
L 141.415889 77.394049 
L 142.366836 78.074563 
L 143.852285 78.995187 
L 144.868948 79.31278 
L 145.004475 79.756801 
L 145.260097 79.795152 
L 145.260097 79.795152 
L 145.338959 79.995156 
L 145.980688 80.723736 
L 145.980688 80.723736 
L 146.280143 80.730656 
L 146.384409 80.920343 
L 146.670846 80.95061 
L 146.688022 81.311909 
L 147.626401 81.784792 
L 148.010269 81.908791 
L 148.26438 82.254721 
L 148.790076 82.305956 
L 149.061953 82.427375 
L 149.107615 82.584083 
L 149.107615 82.584083 
L 149.33669 82.7785 
L 149.414478 82.843506 
L 149.96206 82.88753 
L 150.185413 83.02941 
L 150.194048 83.274842 
L 150.362045 83.281729 
L 150.533875 83.562942 
L 151.285358 84.122291 
L 151.944182 84.292913 
L 151.969944 84.427258 
L 152.905852 84.982086 
L 152.909904 85.118495 
L 152.909904 85.118495 
L 153.103897 85.32786 
L 153.848431 85.721924 
L 154.016368 85.947741 
L 154.426874 86.037054 
L 154.426874 86.037054 
L 154.533748 86.309469 
L 155.071934 86.423443 
L 155.125454 86.612683 
L 155.513538 86.825764 
L 155.661886 87.267041 
L 156.508154 87.385247 
L 156.732738 87.568087 
L 157.256083 87.967653 
L 157.773265 88.045595 
L 157.932033 88.483232 
L 158.266449 88.508611 
L 158.448801 88.858376 
L 159.060697 88.933439 
L 159.20819 89.218338 
L 159.494218 89.250715 
L 160.734789 90.126919 
L 161.049356 90.421658 
L 161.451566 90.538861 
L 161.72243 90.787646 
L 162.579245 90.916018 
L 162.749454 90.999674 
L 162.749454 90.999674 
L 162.821064 91.316738 
L 163.240579 91.568574 
L 163.357045 91.900941 
L 163.701137 91.97456 
L 163.853227 92.134043 
L 164.467331 92.268343 
L 164.569666 92.520854 
L 164.724944 92.536349 
L 164.8581 92.80097 
L 165.129975 92.810082 
L 165.211549 93.047904 
L 165.729927 93.138855 
L 165.729927 93.138855 
L 165.827871 93.268639 
L 166.885872 93.887356 
L 166.889073 93.961343 
L 167.816958 94.260342 
L 167.854836 94.52698 
L 168.128942 94.700905 
L 168.761345 94.707192 
L 168.861483 95.094481 
L 169.632695 95.312684 
L 170.374528 95.836012 
L 171.139416 95.92774 
L 171.418252 96.229494 
L 174.576146 97.406338 
L 174.645652 97.535789 
L 175.251306 97.746363 
L 175.643703 97.806389 
L 175.64561 97.887265 
L 176.22041 98.02342 
L 176.418481 98.409309 
L 177.247627 98.559806 
L 177.255285 98.673905 
L 177.655501 98.740291 
L 180.697028 100.007103 
L 181.369988 100.065873 
L 181.552749 100.319804 
L 181.981203 100.455399 
L 182.876909 100.472102 
L 183.871099 100.840456 
L 184.526017 100.933629 
L 184.611507 101.068554 
L 185.323141 101.180155 
L 185.323141 101.180155 
L 185.596454 101.473811 
L 187.954596 102.245164 
L 188.337715 102.267526 
L 188.445237 102.437821 
L 189.756815 102.590107 
L 189.862706 102.761616 
L 190.139769 102.92892 
L 190.878359 103.046647 
L 191.078826 103.137248 
L 197.490779 104.815029 
L 197.926595 104.84175 
L 197.926595 104.84175 
L 197.966987 104.957336 
L 198.616122 105.096639 
L 199.623217 105.440404 
L 199.800531 105.52986 
L 200.717429 105.675165 
L 201.354931 105.977686 
L 201.447787 106.042516 
L 201.742103 106.08504 
L 201.852513 106.2568 
L 203.110388 106.478016 
L 203.630122 106.729371 
L 204.196812 106.755579 
L 204.477626 106.876708 
L 204.654769 106.882814 
L 204.859128 107.094415 
L 206.59266 107.383593 
L 206.751301 107.611467 
L 207.463884 107.631932 
L 207.463884 107.631932 
" clip-path="url(#p1a5672478e)" style="fill: none; stroke: #d62728; stroke-width: 1.4; stroke-linecap: square"/>
    <defs>
     <path id="mf0e9f3721f" d="M 0 1.9 
C 0.503886 1.9 0.987202 1.699804 1.343503 1.343503 
C 1.699804 0.987202 1.9 0.503886 1.9 0 
C 1.9 -0.503886 1.699804 -0.987202 1.343503 -1.343503 
C 0.987202 -1.699804 0.503886 -1.9 0 -1.9 
C -0.503886 -1.9 -0.987202 -1.699804 -1.343503 -1.343503 
C -1.699804 -0.987202 -1.9 -0.503886 -1.9 0 
C -1.9 0.503886 -1.699804 0.987202 -1.343503 1.343503 
C -0.987202 1.699804 -0.503886 1.9 0 1.9 
z
" style="stroke: #d62728"/>
    </defs>
    <g clip-path="url(#p1a5672478e)">
     <use xlink:href="#mf0e9f3721f" x="88.989616" y="12.284773" style="fill: #d62728; stroke: #d62728"/>
     <use xlink:href="#mf0e9f3721f" x="95.288699" y="27.337193" style="fill: #d62728; stroke: #d62728"/>
     <use xlink:href="#mf0e9f3721f" x="101.76544" y="37.788053" style="fill: #d62728; stroke: #d62728"/>
     <use xlink:href="#mf0e9f3721f" x="107.787964" y="45.975519" style="fill: #d62728; stroke: #d62728"/>
     <use xlink:href="#mf0e9f3721f" x="114.72232" y="54.136846" style="fill: #d62728; stroke: #d62728"/>
     <use xlink:href="#mf0e9f3721f" x="122.503522" y="61.784359" style="fill: #d62728; stroke: #d62728"/>
     <use xlink:href="#mf0e9f3721f" x="131.015327" y="68.750542" style="fill: #d62728; stroke: #d62728"/>
     <use xlink:href="#mf0e9f3721f" x="139.723955" y="75.670216" style="fill: #d62728; stroke: #d62728"/>
     <use xlink:href="#mf0e9f3721f" x="149.076136" y="82.571329" style="fill: #d62728; stroke: #d62728"/>
     <use xlink:href="#mf0e9f3721f" x="159.783166" y="89.470929" style="fill: #d62728; stroke: #d62728"/>
     <use xlink:href="#mf0e9f3721f" x="167.854836" y="94.52698" style="fill: #d62728; stroke: #d62728"/>
     <use xlink:href="#mf0e9f3721f" x="178.408289" y="99.04925" style="fill: #d62728; stroke: #d62728"/>
     <use xlink:href="#mf0e9f3721f" x="194.200807" y="104.055898" style="fill: #d62728; stroke: #d62728"/>
     <use xlink:href="#mf0e9f3721f" x="204.196812" y="106.755579" style="fill: #d62728; stroke: #d62728"/>
    </g>
   </g>
   <g id="line2d_24">
    <path d="M 56.421559 38.689949 
L 56.511918 39.584918 
L 57.476758 40.41622 
L 57.51828 40.829841 
L 57.807858 40.959647 
L 57.834887 41.501889 
L 58.46713 41.517044 
L 58.46713 41.517044 
L 58.467822 41.996863 
L 58.467822 41.996863 
L 58.798563 42.740646 
L 59.484992 42.796757 
L 59.494819 43.003134 
L 59.908938 43.256612 
L 60.006496 43.506244 
L 60.658373 43.724168 
L 60.658373 43.724168 
L 60.697771 43.871961 
L 60.998354 43.893191 
L 60.998354 43.893191 
L 61.114657 44.059111 
L 61.19865 45.437308 
L 61.498246 45.613458 
L 61.952992 46.093522 
L 61.952992 46.093522 
L 62.110199 46.129493 
L 62.21611 46.274368 
L 62.44164 46.540069 
L 62.835076 46.919645 
L 62.835076 46.919645 
L 62.875875 47.030729 
L 63.342891 47.174574 
L 63.342891 47.174574 
L 63.504679 47.803746 
L 64.028603 47.965859 
L 64.071607 48.044362 
L 64.300302 48.093556 
L 64.457921 48.590546 
L 64.457921 48.590546 
L 64.563331 48.715622 
L 64.563331 48.715622 
L 64.624431 49.339012 
L 65.122384 49.441636 
L 65.169762 49.835305 
L 65.538156 50.357087 
L 66.058521 50.688041 
L 66.728186 50.816307 
L 66.728186 50.816307 
L 67.316457 51.62063 
L 67.729378 51.887031 
L 67.931484 52.080769 
L 68.174814 52.128975 
L 68.20094 52.433517 
L 68.95976 52.573283 
L 69.039989 52.607272 
L 69.039989 52.607272 
L 69.278059 53.027017 
L 69.940697 53.367184 
L 70.159356 53.703684 
L 71.260496 53.961673 
L 71.260496 53.961673 
L 71.477315 54.487555 
L 71.888925 55.109004 
L 72.273199 55.265858 
L 72.950322 55.969375 
L 74.42778 57.215122 
L 74.42778 57.215122 
L 74.757853 57.667021 
L 75.02336 57.857314 
L 75.030626 58.050201 
L 75.453756 58.299613 
L 75.967408 58.990626 
L 76.042517 59.35906 
L 76.775265 59.746904 
L 77.071048 60.133375 
L 77.607927 60.486478 
L 77.853869 60.491183 
L 78.002424 60.671089 
L 78.208979 60.804672 
L 79.449877 61.288728 
L 79.660421 61.370509 
L 79.774018 61.742894 
L 80.250526 61.92878 
L 80.250526 61.92878 
L 80.681428 62.082046 
L 80.697793 62.370783 
L 81.399954 62.718105 
L 81.427263 62.959688 
L 83.41462 63.708796 
L 83.41462 63.708796 
L 83.414879 63.919708 
L 83.699469 63.94418 
L 83.774204 64.270837 
L 85.22419 64.890325 
L 85.22419 64.890325 
L 85.398966 65.243944 
L 85.881625 65.542666 
L 86.069903 65.685044 
L 86.069903 65.685044 
L 86.358245 65.712503 
L 86.544419 65.821411 
L 86.544419 65.821411 
L 86.898815 66.07514 
L 86.898815 66.07514 
L 87.338948 66.226044 
L 87.338948 66.226044 
L 87.445736 66.513896 
L 88.364259 67.02028 
L 88.55452 67.042191 
L 88.624809 67.42436 
L 88.786845 67.460091 
L 88.907893 67.642465 
L 89.790186 68.010983 
L 89.818329 68.326127 
L 91.758034 69.180094 
L 91.797539 69.402982 
L 91.797539 69.402982 
L 92.397876 69.764245 
L 92.629123 70.092441 
L 93.680515 70.291963 
L 93.958266 70.629762 
L 94.410524 70.955634 
L 95.267854 71.283793 
L 95.294164 71.541234 
L 95.483928 71.734873 
L 97.702518 72.969911 
L 98.035979 72.998968 
L 98.072165 73.405158 
L 99.691228 73.848001 
L 99.86199 74.058528 
L 100.392938 74.145017 
L 100.561952 74.722132 
L 100.880851 74.737218 
L 101.692192 75.245219 
L 102.282927 75.385025 
L 102.502881 75.695383 
L 103.339868 75.897112 
L 103.483094 76.09479 
L 103.566635 76.143122 
L 103.566635 76.143122 
L 103.971835 76.195202 
L 104.084758 76.522047 
L 104.713227 76.831329 
L 104.713227 76.831329 
L 105.226552 76.935807 
L 105.264627 77.086502 
L 105.742129 77.316236 
L 105.841797 77.444112 
L 106.471071 77.560656 
L 106.53519 77.787121 
L 107.519664 78.290791 
L 107.894546 78.553611 
L 108.293826 78.642169 
L 108.293826 78.642169 
L 108.526754 78.890526 
L 108.77494 79.010363 
L 108.819426 79.112864 
L 109.372735 79.289051 
L 109.60287 79.465744 
L 109.824786 79.601213 
L 110.227431 79.870145 
L 110.698404 80.014668 
L 110.730666 80.205091 
L 111.516229 80.401093 
L 111.774705 80.549788 
L 111.978372 80.592001 
L 112.024622 80.915509 
L 112.598115 81.076763 
L 112.885116 81.201119 
L 113.037317 81.478228 
L 113.532533 81.494187 
L 113.532533 81.494187 
L 113.639006 81.613764 
L 113.687794 81.838104 
L 114.017056 81.902649 
L 114.28557 82.086902 
L 114.28557 82.086902 
L 114.67942 82.294985 
L 115.400326 82.660385 
L 115.620773 82.883874 
L 116.850249 83.363526 
L 116.872147 83.534462 
L 117.335748 83.537872 
L 117.398646 83.699054 
L 118.309947 84.087946 
L 118.3572 84.209927 
L 118.836152 84.382393 
L 118.950137 84.672817 
L 119.226693 84.75532 
L 119.560398 84.993168 
L 120.108443 85.154444 
L 120.108443 85.154444 
L 120.467167 85.483561 
L 120.903866 85.64697 
L 121.277878 85.655909 
L 121.389348 86.004439 
L 121.826489 86.21751 
L 122.434874 86.333858 
L 122.434874 86.333858 
L 122.557155 86.596313 
L 123.21867 86.730724 
L 123.21867 86.730724 
L 123.293955 87.034906 
L 124.306947 87.444531 
L 124.327646 87.61501 
L 124.749561 87.670724 
L 125.211503 87.902867 
L 125.286997 87.97662 
L 125.762068 88.073589 
L 125.762068 88.073589 
L 125.771795 88.220271 
L 126.047208 88.240205 
L 126.479887 88.484177 
L 126.505113 88.655484 
L 126.505113 88.655484 
L 127.600218 88.960896 
L 127.736086 89.126716 
L 128.500969 89.223758 
L 128.6292 89.560836 
L 129.278007 89.634823 
L 129.604341 89.954227 
L 129.604341 89.954227 
L 129.943967 89.970709 
L 130.012043 90.119486 
L 130.012043 90.119486 
L 130.399771 90.302715 
L 130.399771 90.302715 
L 131.015118 90.641614 
L 131.514709 90.756093 
L 132.307735 90.85321 
L 132.442374 91.133773 
L 133.983654 91.80165 
L 133.983654 91.80165 
L 134.103977 92.017426 
L 134.576318 92.126011 
L 134.576318 92.126011 
L 134.591822 92.296181 
L 135.29397 92.428748 
L 135.33648 92.524217 
L 136.323211 92.915078 
L 136.636408 93.247324 
L 137.20674 93.254679 
L 137.221118 93.531177 
L 137.686133 93.723748 
L 137.751972 93.918161 
L 138.704801 94.205763 
L 138.972352 94.360022 
L 140.035688 94.81191 
L 140.78698 95.278089 
L 141.386509 95.471875 
L 141.833611 95.74343 
L 142.287053 95.787137 
L 142.410617 95.943135 
L 143.447243 96.27047 
L 143.811146 96.288995 
L 143.850438 96.471072 
L 144.300074 96.700418 
L 144.375824 96.838997 
L 144.684572 96.850721 
L 145.007415 97.109976 
L 145.622438 97.248914 
L 145.87859 97.468928 
L 146.219587 97.508159 
L 146.276446 97.731121 
L 146.276446 97.731121 
L 146.427695 97.8025 
L 147.131264 97.87374 
L 147.471293 98.106203 
L 147.573369 98.268628 
L 148.383317 98.320839 
L 148.383317 98.320839 
L 148.525549 98.54238 
L 148.948055 98.650979 
L 149.103723 98.850723 
L 149.103723 98.850723 
L 150.273542 99.03647 
L 150.654572 99.407544 
L 151.045931 99.626265 
L 151.838465 99.934506 
L 152.17085 99.988448 
L 152.349815 100.302852 
L 153.35194 100.429831 
L 153.380761 100.69041 
L 153.996286 100.724008 
L 154.814897 100.966198 
L 154.855199 101.413182 
L 155.673907 101.76717 
L 156.661112 101.869424 
L 156.849312 101.88863 
L 156.923335 102.109993 
L 157.88476 102.230606 
L 157.920405 102.33696 
L 158.323758 102.366085 
L 158.345577 102.496407 
L 158.922796 102.550665 
L 160.551576 103.148503 
L 161.003672 103.271978 
L 161.818419 103.4747 
L 161.818419 103.4747 
L 162.142438 103.665607 
L 163.496352 103.822581 
L 163.633232 103.966538 
L 164.420261 104.111142 
L 164.420261 104.111142 
L 164.510376 104.159305 
L 165.225989 104.267816 
L 165.514712 104.489275 
L 165.546474 104.518697 
L 166.465735 104.594385 
L 166.679381 104.792647 
L 167.545854 104.895651 
L 167.607673 105.033624 
L 168.217633 105.09575 
L 170.017059 105.59333 
L 175.627077 106.90082 
L 176.656128 107.067092 
L 176.716023 107.147577 
L 177.084679 107.177403 
L 177.084679 107.177403 
L 177.368679 107.340714 
L 178.320322 107.655563 
L 180.179258 107.777642 
L 180.347004 107.933878 
L 181.737249 108.1045 
L 181.742834 108.203803 
L 182.181663 108.209427 
L 182.181663 108.209427 
L 183.328059 108.4302 
L 183.846221 108.494845 
L 184.203146 108.63104 
L 184.554082 108.634335 
L 184.591073 108.779607 
L 185.795551 108.863107 
L 185.91056 108.972854 
L 188.48688 109.439675 
L 189.71606 109.492499 
L 189.737872 109.656525 
L 191.876682 109.875447 
L 192.023079 109.997216 
L 192.935554 110.102466 
L 193.265496 110.119748 
L 193.69146 110.30823 
L 194.937073 110.334026 
L 194.974518 110.483458 
L 195.594711 110.559431 
L 195.594711 110.559431 
L 195.600609 110.658041 
L 197.297881 110.76539 
L 197.297881 110.76539 
" clip-path="url(#p1a5672478e)" style="fill: none; stroke: #2ca02c; stroke-width: 1.4; stroke-linecap: square"/>
    <defs>
     <path id="m9528309fe8" d="M -1.9 1.9 
L 1.9 1.9 
L 1.9 -1.9 
L -1.9 -1.9 
z
" style="stroke: #2ca02c; stroke-linejoin: miter"/>
    </defs>
    <g clip-path="url(#p1a5672478e)">
     <use xlink:href="#m9528309fe8" x="56.421559" y="38.689949" style="fill: #2ca02c; stroke: #2ca02c; stroke-linejoin: miter"/>
     <use xlink:href="#m9528309fe8" x="64.214283" y="48.044497" style="fill: #2ca02c; stroke: #2ca02c; stroke-linejoin: miter"/>
     <use xlink:href="#m9528309fe8" x="71.477315" y="54.487555" style="fill: #2ca02c; stroke: #2ca02c; stroke-linejoin: miter"/>
     <use xlink:href="#m9528309fe8" x="77.964498" y="60.655619" style="fill: #2ca02c; stroke: #2ca02c; stroke-linejoin: miter"/>
     <use xlink:href="#m9528309fe8" x="87.993748" y="66.806327" style="fill: #2ca02c; stroke: #2ca02c; stroke-linejoin: miter"/>
     <use xlink:href="#m9528309fe8" x="97.181404" y="72.634215" style="fill: #2ca02c; stroke: #2ca02c; stroke-linejoin: miter"/>
     <use xlink:href="#m9528309fe8" x="107.802609" y="78.458841" style="fill: #2ca02c; stroke: #2ca02c; stroke-linejoin: miter"/>
     <use xlink:href="#m9528309fe8" x="116.380402" y="83.189841" style="fill: #2ca02c; stroke: #2ca02c; stroke-linejoin: miter"/>
     <use xlink:href="#m9528309fe8" x="127.046433" y="88.806158" style="fill: #2ca02c; stroke: #2ca02c; stroke-linejoin: miter"/>
     <use xlink:href="#m9528309fe8" x="138.263027" y="94.015695" style="fill: #2ca02c; stroke: #2ca02c; stroke-linejoin: miter"/>
     <use xlink:href="#m9528309fe8" x="148.383317" y="98.320839" style="fill: #2ca02c; stroke: #2ca02c; stroke-linejoin: miter"/>
     <use xlink:href="#m9528309fe8" x="161.645821" y="103.445571" style="fill: #2ca02c; stroke: #2ca02c; stroke-linejoin: miter"/>
     <use xlink:href="#m9528309fe8" x="174.765816" y="106.777287" style="fill: #2ca02c; stroke: #2ca02c; stroke-linejoin: miter"/>
     <use xlink:href="#m9528309fe8" x="195.196564" y="110.485701" style="fill: #2ca02c; stroke: #2ca02c; stroke-linejoin: miter"/>
    </g>
   </g>
   <g id="line2d_25">
    <path d="M 51.7929 86.81614 
L 51.955825 86.868231 
L 52.180641 87.499245 
L 52.760036 87.547347 
L 52.760036 87.547347 
L 52.882949 88.363592 
L 53.238294 88.563305 
L 53.719703 88.881375 
L 53.738187 88.881889 
L 53.868222 89.416382 
L 54.140776 89.567592 
L 54.284403 89.802577 
L 54.535244 89.980975 
L 55.017041 90.061999 
L 55.022573 90.206808 
L 55.206565 90.359713 
L 55.263024 90.60378 
L 55.907173 90.970888 
L 56.122253 91.165567 
L 56.201618 91.318167 
L 57.155859 91.672061 
L 57.330441 91.744733 
L 57.988486 92.557514 
L 57.988486 92.557514 
L 58.263096 92.794476 
L 58.581601 93.321828 
L 58.581601 93.321828 
L 59.17704 93.374567 
L 59.194607 93.847094 
L 59.611214 93.954421 
L 59.619894 94.143542 
L 60.601544 94.767474 
L 60.652403 94.965435 
L 61.130756 95.096577 
L 61.177061 95.284196 
L 61.343595 95.34135 
L 61.404801 95.594175 
L 61.867324 95.596329 
L 61.984609 95.876232 
L 62.104722 95.920911 
L 62.104722 95.920911 
L 62.620678 96.237099 
L 62.715471 96.274966 
L 62.895493 96.610905 
L 63.34776 96.769751 
L 63.35586 96.899478 
L 63.692836 97.010118 
L 66.042064 98.230901 
L 66.047574 98.297416 
L 66.38549 98.460173 
L 66.645596 98.593357 
L 66.659721 98.708495 
L 66.911967 98.809944 
L 67.363099 99.065572 
L 67.396685 99.148229 
L 67.986396 99.220222 
L 68.04861 99.399017 
L 68.594006 99.683692 
L 69.057713 99.767606 
L 69.600618 100.007265 
L 69.957966 100.138185 
L 69.963797 100.184289 
L 70.386395 100.344364 
L 71.735743 100.954653 
L 72.057116 101.04411 
L 72.071161 101.13651 
L 72.483749 101.230152 
L 72.518224 101.356441 
L 72.518224 101.356441 
L 73.431689 101.652336 
L 74.549499 102.096766 
L 74.925068 102.267501 
L 75.155356 102.384097 
L 75.549494 102.467343 
L 75.904424 102.654848 
L 76.288633 102.833108 
L 77.033439 103.177765 
L 81.562118 104.983598 
L 82.216285 105.097743 
L 82.282199 105.175963 
L 83.037771 105.448143 
L 83.037771 105.448143 
L 83.040634 105.532538 
L 83.678845 105.67072 
L 83.850617 105.838539 
L 84.054606 105.875372 
L 84.115908 106.021952 
L 84.115908 106.021952 
L 84.447073 106.050934 
L 84.673994 106.184248 
L 85.653111 106.378963 
L 85.65623 106.53824 
L 86.374114 106.775507 
L 87.973656 107.34922 
L 88.27673 107.428199 
L 88.572576 107.552912 
L 89.019357 107.686301 
L 89.341289 107.796973 
L 89.341289 107.796973 
L 89.358842 107.865696 
L 97.822694 110.973832 
L 97.848138 111.078162 
L 98.298986 111.178376 
L 98.326597 111.302738 
L 99.157046 111.381286 
L 99.265995 111.513896 
L 100.610959 111.869319 
L 100.665233 111.96877 
L 103.333885 112.490005 
L 104.066021 112.563989 
L 106.47477 112.882996 
L 108.236749 112.99712 
L 111.143225 113.210352 
L 117.497742 113.323791 
L 117.739944 113.432752 
L 121.332835 113.482005 
L 122.186498 113.579723 
L 124.610265 113.663395 
L 124.610265 113.663395 
" clip-path="url(#p1a5672478e)" style="fill: none; stroke: #1f77b4; stroke-width: 1.4; stroke-linecap: square"/>
    <defs>
     <path id="me5ecd58a19" d="M 0 -1.9 
L -1.9 1.9 
L 1.9 1.9 
z
" style="stroke: #1f77b4; stroke-linejoin: miter"/>
    </defs>
    <g clip-path="url(#p1a5672478e)">
     <use xlink:href="#me5ecd58a19" x="51.7929" y="86.81614" style="fill: #1f77b4; stroke: #1f77b4; stroke-linejoin: miter"/>
     <use xlink:href="#me5ecd58a19" x="55.635117" y="90.968325" style="fill: #1f77b4; stroke: #1f77b4; stroke-linejoin: miter"/>
     <use xlink:href="#me5ecd58a19" x="60.178139" y="94.481889" style="fill: #1f77b4; stroke: #1f77b4; stroke-linejoin: miter"/>
     <use xlink:href="#me5ecd58a19" x="64.201683" y="97.253428" style="fill: #1f77b4; stroke: #1f77b4; stroke-linejoin: miter"/>
     <use xlink:href="#me5ecd58a19" x="67.004591" y="98.848002" style="fill: #1f77b4; stroke: #1f77b4; stroke-linejoin: miter"/>
     <use xlink:href="#me5ecd58a19" x="71.441036" y="100.832049" style="fill: #1f77b4; stroke: #1f77b4; stroke-linejoin: miter"/>
     <use xlink:href="#me5ecd58a19" x="75.853837" y="102.654352" style="fill: #1f77b4; stroke: #1f77b4; stroke-linejoin: miter"/>
     <use xlink:href="#me5ecd58a19" x="79.140654" y="103.986731" style="fill: #1f77b4; stroke: #1f77b4; stroke-linejoin: miter"/>
     <use xlink:href="#me5ecd58a19" x="83.568396" y="105.655131" style="fill: #1f77b4; stroke: #1f77b4; stroke-linejoin: miter"/>
     <use xlink:href="#me5ecd58a19" x="88.27673" y="107.428199" style="fill: #1f77b4; stroke: #1f77b4; stroke-linejoin: miter"/>
     <use xlink:href="#me5ecd58a19" x="92.673683" y="109.119979" style="fill: #1f77b4; stroke: #1f77b4; stroke-linejoin: miter"/>
     <use xlink:href="#me5ecd58a19" x="97.097164" y="110.66838" style="fill: #1f77b4; stroke: #1f77b4; stroke-linejoin: miter"/>
     <use xlink:href="#me5ecd58a19" x="103.333885" y="112.490005" style="fill: #1f77b4; stroke: #1f77b4; stroke-linejoin: miter"/>
     <use xlink:href="#me5ecd58a19" x="122.186498" y="113.579723" style="fill: #1f77b4; stroke: #1f77b4; stroke-linejoin: miter"/>
    </g>
   </g>
   <g id="patch_3">
    <path d="M 40.333594 119.065 
L 40.333594 7.2 
" style="fill: none; stroke: #000000; stroke-width: 0.8; stroke-linejoin: miter; stroke-linecap: square"/>
   </g>
   <g id="patch_4">
    <path d="M 215.422469 119.065 
L 215.422469 7.2 
" style="fill: none; stroke: #000000; stroke-width: 0.8; stroke-linejoin: miter; stroke-linecap: square"/>
   </g>
   <g id="patch_5">
    <path d="M 40.333594 119.065 
L 215.422469 119.065 
" style="fill: none; stroke: #000000; stroke-width: 0.8; stroke-linejoin: miter; stroke-linecap: square"/>
   </g>
   <g id="patch_6">
    <path d="M 40.333594 7.2 
L 215.422469 7.2 
" style="fill: none; stroke: #000000; stroke-width: 0.8; stroke-linejoin: miter; stroke-linecap: square"/>
   </g>
   <g id="legend_1">
    <g id="patch_7">
     <path d="M 164.602469 42.072031 
L 210.522469 42.072031 
Q 211.922469 42.072031 211.922469 40.672031 
L 211.922469 12.1 
Q 211.922469 10.7 210.522469 10.7 
L 164.602469 10.7 
Q 163.202469 10.7 163.202469 12.1 
L 163.202469 40.672031 
Q 163.202469 42.072031 164.602469 42.072031 
z
" style="fill: #ffffff; opacity: 0.8"/>
    </g>
    <g id="line2d_26">
     <path d="M 166.002469 15.95 
L 173.002469 15.95 
L 180.002469 15.95 
" style="fill: none; stroke: #d62728; stroke-width: 1.4; stroke-linecap: square"/>
     <g>
      <use xlink:href="#mf0e9f3721f" x="173.002469" y="15.95" style="fill: #d62728; stroke: #d62728"/>
     </g>
    </g>
    <g id="text_14">
     <!-- $\alpha$ = 0.3 -->
     <g transform="translate(185.602469 18.4) scale(0.07 -0.07)">
      <defs>
       <path id="Cmmi10-ae" d="M 1288 -72 
Q 984 -72 748 72 
Q 513 216 384 459 
Q 256 703 256 1013 
Q 256 1447 498 1872 
Q 741 2297 1142 2562 
Q 1544 2828 1984 2828 
Q 2309 2828 2556 2658 
Q 2803 2488 2931 2205 
Q 3059 1922 3059 1600 
L 3066 1172 
Q 3284 1475 3436 1801 
Q 3588 2128 3669 2478 
Q 3681 2516 3719 2516 
L 3794 2516 
Q 3853 2516 3853 2456 
Q 3853 2450 3847 2438 
Q 3772 2144 3659 1873 
Q 3547 1603 3395 1350 
Q 3244 1097 3066 891 
Q 3066 97 3250 97 
Q 3369 97 3445 167 
Q 3522 238 3580 341 
Q 3638 444 3653 447 
L 3731 447 
Q 3781 447 3781 384 
Q 3781 225 3598 76 
Q 3416 -72 3238 -72 
Q 3006 -72 2853 78 
Q 2700 228 2644 469 
Q 2344 213 1994 70 
Q 1644 -72 1288 -72 
z
M 1300 97 
Q 1984 97 2613 659 
Q 2609 697 2603 751 
Q 2597 806 2597 813 
L 2597 1503 
Q 2597 2663 1972 2663 
Q 1597 2663 1315 2342 
Q 1034 2022 892 1576 
Q 750 1131 750 763 
Q 750 484 892 290 
Q 1034 97 1300 97 
z
" transform="scale(0.015625)"/>
       <path id="CMUSerif-Roman-3d" d="M 366 972 
Q 372 1050 494 1050 
L 4416 1050 
Q 4600 1050 4603 978 
Q 4603 900 4428 903 
L 538 903 
Q 366 900 366 972 
z
M 366 2222 
Q 366 2300 500 2297 
L 4409 2297 
Q 4600 2297 4603 2222 
Q 4603 2150 4441 2150 
L 494 2150 
Q 366 2150 366 2222 
z
" transform="scale(0.015625)"/>
      </defs>
      <use xlink:href="#Cmmi10-ae" transform="translate(0 0.390625)"/>
      <use xlink:href="#CMUSerif-Roman-20" transform="translate(63.916016 0.390625)"/>
      <use xlink:href="#CMUSerif-Roman-3d" transform="translate(97.167969 0.390625)"/>
      <use xlink:href="#CMUSerif-Roman-20" transform="translate(174.951172 0.390625)"/>
      <use xlink:href="#CMUSerif-Roman-30" transform="translate(208.203125 0.390625)"/>
      <use xlink:href="#CMUSerif-Roman-2e" transform="translate(258.203125 0.390625)"/>
      <use xlink:href="#CMUSerif-Roman-33" transform="translate(285.986328 0.390625)"/>
     </g>
    </g>
    <g id="line2d_27">
     <path d="M 166.002469 25.707344 
L 173.002469 25.707344 
L 180.002469 25.707344 
" style="fill: none; stroke: #2ca02c; stroke-width: 1.4; stroke-linecap: square"/>
     <g>
      <use xlink:href="#m9528309fe8" x="173.002469" y="25.707344" style="fill: #2ca02c; stroke: #2ca02c; stroke-linejoin: miter"/>
     </g>
    </g>
    <g id="text_15">
     <!-- $\alpha$ = 0.6 -->
     <g transform="translate(185.602469 28.157344) scale(0.07 -0.07)">
      <use xlink:href="#Cmmi10-ae" transform="translate(0 0.390625)"/>
      <use xlink:href="#CMUSerif-Roman-20" transform="translate(63.916016 0.390625)"/>
      <use xlink:href="#CMUSerif-Roman-3d" transform="translate(97.167969 0.390625)"/>
      <use xlink:href="#CMUSerif-Roman-20" transform="translate(174.951172 0.390625)"/>
      <use xlink:href="#CMUSerif-Roman-30" transform="translate(208.203125 0.390625)"/>
      <use xlink:href="#CMUSerif-Roman-2e" transform="translate(258.203125 0.390625)"/>
      <use xlink:href="#CMUSerif-Roman-36" transform="translate(285.986328 0.390625)"/>
     </g>
    </g>
    <g id="line2d_28">
     <path d="M 166.002469 35.464688 
L 173.002469 35.464688 
L 180.002469 35.464688 
" style="fill: none; stroke: #1f77b4; stroke-width: 1.4; stroke-linecap: square"/>
     <g>
      <use xlink:href="#me5ecd58a19" x="173.002469" y="35.464688" style="fill: #1f77b4; stroke: #1f77b4; stroke-linejoin: miter"/>
     </g>
    </g>
    <g id="text_16">
     <!-- $\alpha$ = 0.9 -->
     <g transform="translate(185.602469 37.914688) scale(0.07 -0.07)">
      <defs>
       <path id="CMUSerif-Roman-39" d="M 269 2822 
Q 269 3163 369 3395 
Q 469 3628 678 3859 
Q 1063 4263 1619 4263 
Q 1856 4263 2067 4163 
Q 2278 4063 2479 3836 
Q 2681 3609 2803 3164 
Q 2925 2719 2925 2106 
Q 2925 1116 2445 487 
Q 1966 -141 1319 -141 
Q 909 -141 668 45 
Q 428 231 428 550 
Q 428 716 522 786 
Q 616 856 722 856 
Q 838 856 928 779 
Q 1019 703 1019 563 
Q 1019 447 945 358 
Q 872 269 684 269 
Q 869 38 1313 38 
Q 1472 38 1631 111 
Q 1791 184 1964 364 
Q 2138 544 2244 922 
Q 2350 1300 2350 1831 
L 2350 2034 
Q 2094 1394 1550 1394 
Q 1013 1394 641 1806 
Q 269 2219 269 2822 
z
M 844 2816 
Q 844 2181 959 1947 
Q 1156 1544 1556 1544 
Q 1947 1544 2142 1892 
Q 2338 2241 2338 2694 
Q 2338 3322 2234 3597 
Q 2044 4103 1620 4103 
Q 1197 4103 978 3700 
Q 844 3463 844 2816 
z
" transform="scale(0.015625)"/>
      </defs>
      <use xlink:href="#Cmmi10-ae" transform="translate(0 0.390625)"/>
      <use xlink:href="#CMUSerif-Roman-20" transform="translate(63.916016 0.390625)"/>
      <use xlink:href="#CMUSerif-Roman-3d" transform="translate(97.167969 0.390625)"/>
      <use xlink:href="#CMUSerif-Roman-20" transform="translate(174.951172 0.390625)"/>
      <use xlink:href="#CMUSerif-Roman-30" transform="translate(208.203125 0.390625)"/>
      <use xlink:href="#CMUSerif-Roman-2e" transform="translate(258.203125 0.390625)"/>
      <use xlink:href="#CMUSerif-Roman-39" transform="translate(285.986328 0.390625)"/>
     </g>
    </g>
   </g>
  </g>
 </g>
 <defs>
  <clipPath id="p1a5672478e">
   <rect x="40.333594" y="7.2" width="175.088875" height="111.865"/>
  </clipPath>
 </defs>
</svg>
